<svg width="24" height="24" viewBox="0 0 24 24" fill="none" xmlns="http://www.w3.org/2000/svg">
<path d="M6.20261 14.943L3.78161 17.2575L3.76961 17.2695C3.51521 17.5107 3.3117 17.8005 3.17111 18.1216C3.03052 18.4428 2.95568 18.7889 2.95102 19.1394C2.94637 19.49 3.01198 19.8379 3.14399 20.1627C3.276 20.4875 3.47173 20.7826 3.71964 21.0305C3.96754 21.2784 4.26259 21.4741 4.58738 21.6061C4.91217 21.7381 5.26011 21.8037 5.61067 21.7991C5.96123 21.7944 6.3073 21.7196 6.62847 21.579C6.94963 21.4384 7.23938 21.2349 7.48061 20.9805L7.49261 20.9685L10.7941 17.514L8.50961 15.003H6.93011C6.68588 15.0028 6.44208 14.9828 6.20111 14.943M16.8271 11.604C17.1136 11.4951 17.4079 11.4084 17.7076 11.3445C19.2976 10.9995 20.9926 10.1145 21.9256 9.1815C22.349 8.76484 22.6857 8.26848 22.9163 7.72104C23.1469 7.17359 23.2669 6.58591 23.2692 5.99188C23.2716 5.39785 23.1563 4.80924 22.93 4.25999C22.7037 3.71074 22.371 3.21173 21.9509 2.79174C21.5308 2.37174 21.0317 2.03908 20.4824 1.81293C19.9331 1.58679 19.3444 1.47164 18.7504 1.47413C18.1564 1.47662 17.5687 1.5967 17.0213 1.82743C16.474 2.05817 15.9777 2.395 15.5611 2.8185C14.8861 3.4935 14.2351 4.572 13.7956 5.7195C14.0933 6.3318 14.2482 7.00367 14.2486 7.6845V9.2565L16.8271 11.604ZM16.5001 5.625C16.699 5.625 16.8898 5.70402 17.0304 5.84467C17.1711 5.98533 17.2501 6.17609 17.2501 6.375C17.2501 6.996 17.7541 7.5 18.3751 7.5C18.574 7.5 18.7648 7.57902 18.9054 7.71967C19.0461 7.86033 19.1251 8.05109 19.1251 8.25C19.1251 8.44892 19.0461 8.63968 18.9054 8.78033C18.7648 8.92099 18.574 9 18.3751 9C17.6789 9 17.0112 8.72344 16.519 8.23116C16.0267 7.73888 15.7501 7.0712 15.7501 6.375C15.7501 6.17609 15.8291 5.98533 15.9698 5.84467C16.1104 5.70402 16.3012 5.625 16.5001 5.625ZM4.44611 2.382C4.7247 2.1033 5.05547 1.88221 5.41953 1.73137C5.78358 1.58053 6.17379 1.50289 6.56786 1.50289C6.96193 1.50289 7.35213 1.58053 7.71619 1.73137C8.08025 1.88221 8.41102 2.1033 8.68961 2.382L11.8711 5.562C12.1501 5.84087 12.3713 6.17201 12.5221 6.53648C12.6729 6.90094 12.7504 7.29156 12.7501 7.686V9.5895C12.75 9.69394 12.7717 9.79725 12.8138 9.89282C12.8559 9.98839 12.9175 10.0741 12.9946 10.1445L20.1091 16.6185L20.1211 16.6305C20.4076 16.9072 20.6362 17.2383 20.7934 17.6043C20.9506 17.9703 21.0334 18.364 21.0369 18.7623C21.0403 19.1606 20.9644 19.5557 20.8136 19.9244C20.6627 20.2931 20.44 20.628 20.1583 20.9097C19.8766 21.1914 19.5417 21.4141 19.173 21.565C18.8043 21.7158 18.4092 21.7917 18.0109 21.7883C17.6126 21.7848 17.2189 21.702 16.8529 21.5448C16.4869 21.3876 16.1558 21.159 15.8791 20.8725L15.8671 20.8605L9.39611 13.7505C9.32585 13.6731 9.24019 13.6112 9.14461 13.5688C9.04903 13.5265 8.94565 13.5046 8.84111 13.5045H6.93011C6.13452 13.5043 5.37159 13.1882 4.80911 12.6255L1.62911 9.4425C1.3504 9.16391 1.12932 8.83314 0.978478 8.46908C0.827638 8.10503 0.75 7.71482 0.75 7.32075C0.75 6.92669 0.827638 6.53648 0.978478 6.17242C1.12932 5.80837 1.3504 5.4776 1.62911 5.199L4.44611 2.382ZM5.03111 6.969C4.89028 6.82817 4.69927 6.74906 4.50011 6.74906C4.30095 6.74906 4.10994 6.82817 3.96911 6.969C3.82828 7.10983 3.74916 7.30084 3.74916 7.5C3.74916 7.69917 3.82828 7.89017 3.96911 8.031L6.21911 10.281C6.28884 10.3507 6.37162 10.406 6.46273 10.4438C6.55384 10.4815 6.65149 10.501 6.75011 10.501C6.84873 10.501 6.94638 10.4815 7.03749 10.4438C7.12859 10.406 7.21138 10.3507 7.28111 10.281C7.35084 10.2113 7.40616 10.1285 7.44389 10.0374C7.48163 9.94627 7.50106 9.84862 7.50106 9.75C7.50106 9.65139 7.48163 9.55374 7.44389 9.46263C7.40616 9.37152 7.35084 9.28874 7.28111 9.219L5.03111 6.969ZM6.21911 4.719C6.14926 4.78867 6.09385 4.87144 6.05604 4.96255C6.01823 5.05367 5.99877 5.15135 5.99877 5.25C5.99877 5.34865 6.01823 5.44634 6.05604 5.53745C6.09385 5.62857 6.14926 5.71134 6.21911 5.781L8.46911 8.031C8.60994 8.17183 8.80095 8.25095 9.00011 8.25095C9.19927 8.25095 9.39028 8.17183 9.53111 8.031C9.67194 7.89017 9.75106 7.69917 9.75106 7.5C9.75106 7.30084 9.67194 7.10983 9.53111 6.969L7.28111 4.719C7.21144 4.64916 7.12868 4.59374 7.03756 4.55594C6.94644 4.51813 6.84876 4.49866 6.75011 4.49866C6.65146 4.49866 6.55378 4.51813 6.46266 4.55594C6.37154 4.59374 6.28878 4.64916 6.21911 4.719Z" fill="black"/>
</svg>
