<svg width="1439" height="306" viewBox="0 0 1439 306" fill="none" xmlns="http://www.w3.org/2000/svg">
<mask id="mask0_251_35" style="mask-type:alpha" maskUnits="userSpaceOnUse" x="0" y="0" width="1440" height="306">
<rect width="1440" height="306" fill="#D9D9D9"/>
</mask>
<g mask="url(#mask0_251_35)">
<path d="M1519.68 88.184C1454.97 -82.1313 1328.59 150.543 1204.37 158.519C1029.79 169.73 933.821 83.6108 759.126 88.184C609.245 92.1076 556.84 175.466 377.793 158.519C198.746 141.573 125.859 32.2561 -1.42798 88.184C-128.715 144.112 -1.42798 378 -1.42798 378H1519.68C1519.68 378 1556.4 184.822 1519.68 88.184Z" fill="#F7B400"/>
<path d="M-6.67572e-06 135.001C61.2628 34.5099 180.901 171.794 298.5 176.501C463.77 183.115 554.62 132.303 720 135.001C861.889 137.316 911.5 186.5 1081 176.501C1250.5 166.502 1319.5 102.002 1440 135.001C1560.5 168 1440 306.001 1440 306.001H-6.67572e-06C-6.67572e-06 306.001 -34.7609 192.02 -6.67572e-06 135.001Z" fill="#E96600"/>
</g>
</svg>
