<svg width="36" height="36" viewBox="0 0 36 36" fill="none" xmlns="http://www.w3.org/2000/svg">
<path fill-rule="evenodd" clip-rule="evenodd" d="M4.34997 10.452C4.50555 10.331 4.68345 10.2418 4.87352 10.1895C5.06359 10.1373 5.2621 10.123 5.45769 10.1475C5.65328 10.172 5.84212 10.2349 6.01341 10.3324C6.18471 10.43 6.33509 10.5603 6.45597 10.716L10.197 15.525C10.6858 16.1544 11.3603 16.614 12.1249 16.8385C12.8896 17.0631 13.7055 17.0412 14.457 16.776L13.6965 15.8175L7.39347 9.51453C7.12024 9.23163 6.96905 8.85273 6.97246 8.45943C6.97588 8.06614 7.13363 7.68992 7.41174 7.4118C7.68986 7.13369 8.06608 6.97594 8.45937 6.97252C8.85266 6.96911 9.23157 7.1203 9.51447 7.39354L15.8175 13.6965L16.7775 14.457C17.0425 13.7054 17.0641 12.8894 16.8393 12.1247C16.6145 11.3601 16.1546 10.6856 15.525 10.197L10.7145 6.45604C10.4104 6.20848 10.2153 5.85168 10.1711 5.46207C10.1268 5.07246 10.2369 4.68101 10.4777 4.37156C10.7185 4.0621 11.0709 3.85925 11.4595 3.80644C11.848 3.75364 12.2418 3.85508 12.5565 4.08903L17.367 7.83003C18.6292 8.81204 19.505 10.2075 19.8405 11.7711C20.176 13.3348 19.9498 14.9666 19.2015 16.38L29.367 24.4425C29.7546 24.7495 30.0728 25.1351 30.3008 25.5738C30.5288 26.0125 30.6615 26.4945 30.69 26.9881C30.7186 27.4817 30.6423 27.9758 30.4664 28.4379C30.2905 28.8999 30.0187 29.3196 29.6691 29.6692C29.3195 30.0188 28.8999 30.2905 28.4378 30.4665C27.9757 30.6424 27.4817 30.7186 26.988 30.6901C26.4944 30.6615 26.0124 30.5289 25.5737 30.3009C25.135 30.0729 24.7495 29.7546 24.4425 29.367L16.38 19.2015C14.9666 19.9498 13.3347 20.1761 11.771 19.8406C10.2074 19.5051 8.81198 18.6293 7.82997 17.367L4.08747 12.5565C3.84347 12.2424 3.7342 11.8443 3.78371 11.4496C3.83322 11.055 4.03594 10.6961 4.34997 10.452Z" fill="#E96600"/>
</svg>
