<svg width="393" height="623" viewBox="0 0 393 623" fill="none" xmlns="http://www.w3.org/2000/svg">
<g filter="url(#filter0_d_500_1117)">
<path d="M146.097 611C170.26 611 192.622 597.267 210.862 573.944C220.257 577.474 229.986 579.327 239.951 579.327C319.507 579.327 383.999 461.183 383.999 315.444C383.999 169.706 319.507 51.5615 239.951 51.5615C231.164 51.5615 222.562 53.0042 214.209 55.7646C192.668 28.4967 164.585 12 133.868 12C66.01 12.0001 11 92.5042 11 191.811C11 242.051 25.0814 287.478 47.7812 320.104C39.5465 347.77 34.8809 379.327 34.8809 412.825C34.8809 522.274 84.6737 611 146.097 611Z" fill="white"/>
</g>
<mask id="path-2-inside-1_500_1117" fill="white">
<path d="M147.634 589.428C170.051 589.428 190.658 574.703 206.936 550.06C217.611 555.424 228.828 558.284 240.398 558.284C312.057 558.284 370.148 448.619 370.148 313.34C370.148 178.061 312.057 68.3965 240.398 68.3965C229.879 68.3965 219.652 70.7608 209.858 75.2217C190.213 47.0336 163.412 29.6768 133.864 29.6768C73.6128 29.677 24.7695 101.845 24.7695 190.868C24.7696 241.56 40.6066 286.787 65.3691 316.336C57.0685 343.242 52.3076 374.581 52.3076 408.035C52.3077 508.216 94.9868 589.428 147.634 589.428Z"/>
</mask>
<path d="M147.634 589.428V590.428V589.428ZM206.936 550.06L206.101 549.508L206.591 548.767L207.385 549.166L206.936 550.06ZM240.398 558.284V559.284V558.284ZM370.148 313.34H371.148H370.148ZM240.398 68.3965V67.3965V68.3965ZM209.858 75.2217L210.273 76.1317L209.514 76.4772L209.038 75.7935L209.858 75.2217ZM133.864 29.6768L133.864 28.6768H133.864V29.6768ZM24.7695 190.868H23.7695H24.7695ZM65.3691 316.336L66.1356 315.694L66.4851 316.111L66.3247 316.631L65.3691 316.336ZM52.3076 408.035H51.3076H52.3076ZM147.634 589.428V590.428C146.955 590.428 146.278 590.414 145.602 590.388L145.641 589.389L145.68 588.39C146.33 588.415 146.981 588.428 147.634 588.428V589.428ZM141.681 589.08L141.565 590.073C140.223 589.916 138.888 589.706 137.562 589.447L137.754 588.465L137.946 587.484C139.223 587.734 140.507 587.935 141.798 588.087L141.681 589.08ZM133.886 587.555L133.62 588.519C132.326 588.164 131.04 587.759 129.764 587.308L130.097 586.365L130.431 585.422C131.663 585.858 132.903 586.248 134.151 586.591L133.886 587.555ZM126.4 584.911L126.003 585.829C124.775 585.297 123.557 584.722 122.348 584.103L122.804 583.213L123.259 582.323C124.43 582.922 125.61 583.48 126.798 583.994L126.4 584.911ZM119.314 581.289L118.805 582.149C117.661 581.473 116.528 580.758 115.404 580.006L115.961 579.175L116.517 578.344C117.611 579.077 118.712 579.771 119.822 580.428L119.314 581.289ZM112.723 576.878L112.123 577.678C111.059 576.88 110.004 576.048 108.959 575.182L109.597 574.412L110.236 573.642C111.256 574.488 112.285 575.3 113.323 576.078L112.723 576.878ZM106.589 571.799L105.917 572.539C104.939 571.65 103.971 570.732 103.013 569.783L103.716 569.073L104.42 568.362C105.358 569.291 106.306 570.19 107.262 571.059L106.589 571.799ZM100.946 566.219L100.215 566.902C99.3071 565.93 98.4087 564.93 97.5199 563.905L98.2757 563.25L99.0314 562.595C99.9043 563.602 100.786 564.583 101.677 565.537L100.946 566.219ZM95.7372 560.216L94.9594 560.844C94.127 559.814 93.3036 558.761 92.4897 557.684L93.2874 557.081L94.0851 556.478C94.8863 557.538 95.6964 558.574 96.515 559.587L95.7372 560.216ZM90.9324 553.864L90.1166 554.443C89.3544 553.368 88.601 552.272 87.8567 551.156L88.6886 550.601L89.5205 550.046C90.2545 551.147 90.9971 552.227 91.7481 553.286L90.9324 553.864ZM86.5211 547.253L85.6744 547.785C84.9719 546.668 84.2781 545.531 83.5931 544.377L84.4531 543.866L85.3132 543.356C85.9896 544.496 86.6745 545.618 87.3678 546.721L86.5211 547.253ZM82.4675 540.424L81.5954 540.913C80.9465 539.756 80.3061 538.583 79.6745 537.392L80.5579 536.924L81.4412 536.455C82.0656 537.632 82.6986 538.792 83.3397 539.935L82.4675 540.424ZM78.7401 533.404L77.8467 533.853C77.2495 532.665 76.6608 531.462 76.0807 530.245L76.9835 529.814L77.8863 529.384C78.4604 530.59 79.0429 531.78 79.6336 532.955L78.7401 533.404ZM75.3187 526.226L74.4074 526.638C73.8611 525.428 73.323 524.206 72.7933 522.969L73.7125 522.575L74.6317 522.182C75.1563 523.406 75.6891 524.617 76.23 525.814L75.3187 526.226ZM72.1852 518.916L71.2588 519.292C70.7599 518.065 70.269 516.825 69.7864 515.573L70.7194 515.213L71.6525 514.854C72.1308 516.095 72.6172 517.323 73.1116 518.539L72.1852 518.916ZM69.3235 511.495L68.3843 511.839C67.9297 510.595 67.4831 509.34 67.0446 508.075L67.9895 507.747L68.9344 507.42C69.3693 508.675 69.8121 509.919 70.2627 511.152L69.3235 511.495ZM66.7193 503.981L65.7691 504.293C65.3565 503.035 64.9516 501.768 64.5548 500.49L65.5098 500.193L66.4648 499.897C66.8585 501.164 67.2601 502.422 67.6694 503.669L66.7193 503.981ZM64.3601 496.387L63.4006 496.669C63.0277 495.399 62.6625 494.119 62.3053 492.831L63.2689 492.564L64.2325 492.297C64.5871 493.575 64.9495 494.845 65.3196 496.105L64.3601 496.387ZM62.2351 488.725L61.2676 488.978C60.9326 487.697 60.6053 486.407 60.2859 485.109L61.2569 484.87L62.2279 484.631C62.5451 485.92 62.87 487.2 63.2026 488.472L62.2351 488.725ZM60.3348 481.005L59.3605 481.23C59.0619 479.939 58.771 478.64 58.4879 477.333L59.4652 477.121L60.4425 476.909C60.7237 478.207 61.0126 479.497 61.3091 480.78L60.3348 481.005ZM58.651 473.235L57.6709 473.434C57.4075 472.133 57.1517 470.825 56.9037 469.51L57.8864 469.325L58.8691 469.139C59.1154 470.446 59.3695 471.745 59.6311 473.037L58.651 473.235ZM57.1767 465.422L56.1917 465.595C55.9625 464.286 55.7408 462.97 55.5269 461.648L56.5141 461.488L57.5012 461.329C57.7138 462.642 57.934 463.949 58.1618 465.25L57.1767 465.422ZM55.906 457.573L54.9169 457.721C54.7211 456.405 54.5329 455.084 54.3524 453.757L55.3432 453.622L56.3341 453.487C56.5135 454.806 56.7005 456.119 56.8951 457.426L55.906 457.573ZM54.8335 449.694L53.8411 449.816C53.6783 448.499 53.5231 447.175 53.3755 445.847L54.3694 445.736L55.3633 445.626C55.51 446.946 55.6643 448.262 55.826 449.571L54.8335 449.694ZM53.955 441.789L52.9599 441.887C52.8294 440.568 52.7064 439.244 52.591 437.914L53.5872 437.828L54.5835 437.741C54.6982 439.063 54.8205 440.379 54.9501 441.69L53.955 441.789ZM53.2666 433.863L52.2694 433.938C52.1705 432.618 52.0791 431.293 51.9952 429.964L52.9932 429.901L53.9912 429.838C54.0746 431.16 54.1655 432.476 54.2638 433.789L53.2666 433.863ZM52.7652 425.922L51.7666 425.973C51.6987 424.653 51.6382 423.329 51.5852 422.001L52.5844 421.961L53.5836 421.921C53.6363 423.242 53.6964 424.558 53.7639 425.871L52.7652 425.922ZM52.4484 417.977L51.4488 418.005C51.4112 416.683 51.3811 415.358 51.3585 414.029L52.3584 414.012L53.3582 413.995C53.3807 415.316 53.4107 416.634 53.448 417.948L52.4484 417.977ZM52.3133 410.033L51.3133 410.038C51.3095 409.371 51.3076 408.704 51.3076 408.035H52.3076H53.3076C53.3076 408.7 53.3095 409.364 53.3133 410.027L52.3133 410.033ZM52.3076 408.035H51.3076C51.3076 407.386 51.3094 406.739 51.313 406.091L52.3129 406.097L53.3129 406.102C53.3094 406.746 53.3076 407.39 53.3076 408.035H52.3076ZM52.3556 402.224L51.3558 402.208C51.3772 400.91 51.4058 399.615 51.4415 398.324L52.4412 398.352L53.4408 398.38C53.4053 399.663 53.3768 400.95 53.3555 402.241L52.3556 402.224ZM52.5699 394.48L51.5706 394.441C51.621 393.143 51.6785 391.85 51.7432 390.56L52.7419 390.61L53.7407 390.66C53.6764 391.942 53.6192 393.228 53.5691 394.518L52.5699 394.48ZM52.9576 386.743L51.9594 386.682C52.0391 385.386 52.1259 384.093 52.2199 382.806L53.2172 382.878L54.2146 382.951C54.1212 384.231 54.0349 385.516 53.9557 386.805L52.9576 386.743ZM53.5212 379.016L52.5248 378.932C52.6342 377.637 52.7508 376.348 52.8744 375.063L53.8698 375.158L54.8652 375.254C54.7423 376.532 54.6264 377.814 54.5177 379.1L53.5212 379.016ZM54.2633 371.306L53.2691 371.199C53.4088 369.906 53.5557 368.619 53.7097 367.337L54.7026 367.456L55.6954 367.575C55.5424 368.85 55.3964 370.129 55.2575 371.414L54.2633 371.306ZM55.1876 363.613L54.1962 363.482C54.3666 362.194 54.5443 360.912 54.729 359.635L55.7187 359.778L56.7084 359.921C56.5248 361.19 56.3483 362.464 56.1789 363.744L55.1876 363.613ZM56.2972 355.946L55.3094 355.791C55.5114 354.506 55.7207 353.228 55.9371 351.956L56.9229 352.123L57.9088 352.291C57.6937 353.555 57.4858 354.825 57.2851 356.102L56.2972 355.946ZM57.5964 348.311L56.6128 348.13C56.8473 346.851 57.089 345.577 57.338 344.31L58.3193 344.503L59.3005 344.696C59.0532 345.954 58.813 347.219 58.5801 348.491L57.5964 348.311ZM59.0911 340.708L58.1125 340.502C58.3801 339.229 58.655 337.963 58.9372 336.704L59.913 336.923L60.8888 337.142C60.6085 338.392 60.3355 339.649 60.0697 340.914L59.0911 340.708ZM60.7862 333.148L59.8135 332.916C60.1154 331.651 60.4246 330.393 60.7412 329.143L61.7106 329.388L62.68 329.634C62.3657 330.875 62.0587 332.124 61.7589 333.38L60.7862 333.148ZM62.6885 325.639L61.7227 325.379C62.0603 324.122 62.4053 322.873 62.7577 321.632L63.7196 321.906L64.6815 322.179C64.3318 323.41 63.9894 324.65 63.6544 325.898L62.6885 325.639ZM64.8058 318.187L63.848 317.899C64.0347 317.278 64.2232 316.658 64.4136 316.041L65.3691 316.336L66.3247 316.631C66.1358 317.243 65.9487 317.858 65.7635 318.475L64.8058 318.187ZM65.3691 316.336L64.6027 316.978C64.1783 316.472 63.7565 315.961 63.3374 315.445L64.1133 314.814L64.8891 314.184C65.3021 314.691 65.7176 315.195 66.1356 315.694L65.3691 316.336ZM61.6631 311.71L60.8693 312.318C60.0661 311.269 59.2735 310.204 58.4917 309.122L59.3023 308.536L60.1128 307.951C60.8838 309.018 61.6653 310.068 62.457 311.102L61.6631 311.71ZM57.0295 305.299L56.2034 305.863C55.4594 304.772 54.7259 303.666 54.0032 302.544L54.8438 302.003L55.6844 301.461C56.3977 302.568 57.1215 303.66 57.8556 304.736L57.0295 305.299ZM52.744 298.651L51.8899 299.171C51.2033 298.044 50.5272 296.902 49.8621 295.747L50.7287 295.248L51.5954 294.749C52.2524 295.89 52.9201 297.018 53.598 298.131L52.744 298.651ZM48.7969 291.796L47.9186 292.274C47.2877 291.115 46.6675 289.943 46.0581 288.758L46.9474 288.301L47.8367 287.843C48.4391 289.014 49.052 290.173 49.6753 291.318L48.7969 291.796ZM45.1791 284.763L44.2796 285.2C43.7029 284.013 43.1369 282.814 42.5817 281.604L43.4907 281.187L44.3996 280.77C44.9487 281.967 45.5084 283.153 46.0785 284.326L45.1791 284.763ZM41.8812 277.575L40.9634 277.972C40.4394 276.761 39.9261 275.539 39.4235 274.307L40.3495 273.929L41.2755 273.552C41.7727 274.771 42.2806 275.98 42.7989 277.178L41.8812 277.575ZM38.8948 270.252L37.9611 270.61C37.4884 269.378 37.0264 268.137 36.5751 266.885L37.5159 266.546L38.4566 266.207C38.9033 267.445 39.3606 268.675 39.8284 269.894L38.8948 270.252ZM36.212 262.812L35.2647 263.133C34.842 261.883 34.43 260.624 34.0288 259.356L34.9822 259.054L35.9356 258.752C36.3329 260.008 36.7408 261.255 37.1593 262.492L36.212 262.812ZM33.8257 255.272L32.8667 255.555C32.4929 254.29 32.1298 253.016 31.7775 251.734L32.7418 251.469L33.7061 251.204C34.055 252.474 34.4146 253.736 34.7848 254.989L33.8257 255.272ZM31.7297 247.645L30.7606 247.892C30.4348 246.613 30.1196 245.327 29.8152 244.033L30.7886 243.804L31.7621 243.575C32.0636 244.857 32.3759 246.131 32.6987 247.398L31.7297 247.645ZM29.9181 239.945L28.9406 240.156C28.6618 238.866 28.3936 237.568 28.1363 236.264L29.1174 236.071L30.0984 235.877C30.3535 237.169 30.6192 238.455 30.8955 239.734L29.9181 239.945ZM28.386 232.183L27.4017 232.359C27.1693 231.06 26.9476 229.755 26.7366 228.444L27.7239 228.285L28.7112 228.127C28.9203 229.426 29.1401 230.72 29.3704 232.007L28.386 232.183ZM27.13 224.377L26.14 224.518C25.9531 223.212 25.7769 221.9 25.6114 220.582L26.6036 220.458L27.5958 220.333C27.7598 221.639 27.9346 222.94 28.1199 224.235L27.13 224.377ZM26.1444 216.53L25.1503 216.637C25.0082 215.325 24.8767 214.008 24.7561 212.685L25.752 212.594L26.7479 212.503C26.8675 213.815 26.9978 215.121 27.1386 216.422L26.1444 216.53ZM25.4259 208.652L24.4287 208.726C24.3309 207.409 24.2437 206.087 24.1674 204.761L25.1658 204.704L26.1641 204.646C26.2398 205.961 26.3262 207.272 26.4232 208.578L25.4259 208.652ZM24.9714 200.754L23.9722 200.795C23.9182 199.477 23.8749 198.154 23.8424 196.827L24.8421 196.803L25.8418 196.778C25.874 198.094 25.917 199.406 25.9705 200.713L24.9714 200.754ZM24.7776 192.849L23.7776 192.858C23.7722 192.195 23.7695 191.532 23.7695 190.868H24.7695H25.7695C25.7695 191.527 25.7722 192.185 25.7776 192.841L24.7776 192.849ZM24.7695 190.868H23.7695C23.7695 190.2 23.7723 189.533 23.7777 188.867L24.7777 188.875L25.7777 188.883C25.7722 189.544 25.7695 190.206 25.7695 190.868H24.7695ZM24.8428 184.907L23.8431 184.882C23.8758 183.551 23.9194 182.224 23.9738 180.902L24.973 180.943L25.9721 180.984C25.9182 182.295 25.8749 183.611 25.8425 184.931L24.8428 184.907ZM25.169 176.977L24.1707 176.919C24.2474 175.59 24.3351 174.266 24.4334 172.947L25.4307 173.021L26.4279 173.095C26.3304 174.404 26.2435 175.717 26.1673 177.034L25.169 176.977ZM25.7593 169.062L24.7635 168.971C24.8848 167.646 25.0169 166.326 25.1598 165.011L26.1539 165.119L27.1481 165.227C27.0064 166.53 26.8754 167.839 26.7551 169.153L25.7593 169.062ZM26.6169 161.173L25.6248 161.048C25.7912 159.727 25.9685 158.412 26.1565 157.103L27.1463 157.245L28.1362 157.387C27.9498 158.685 27.7741 159.989 27.6091 161.298L26.6169 161.173ZM27.7455 153.317L26.7583 153.158C26.9705 151.844 27.1936 150.536 27.4274 149.234L28.4116 149.411L29.3959 149.587C29.1642 150.878 28.943 152.174 28.7327 153.477L27.7455 153.317ZM29.1488 145.507L28.1679 145.312C28.4267 144.006 28.6964 142.706 28.9768 141.413L29.954 141.625L30.9313 141.837C30.6535 143.118 30.3862 144.406 30.1298 145.701L29.1488 145.507ZM30.8313 137.752L29.8581 137.522C30.1644 136.225 30.4815 134.935 30.8094 133.653L31.7782 133.901L32.747 134.148C32.4222 135.418 32.108 136.696 31.8046 137.981L30.8313 137.752ZM32.7978 130.064L31.8338 129.798C32.1886 128.512 32.5542 127.234 32.9306 125.965L33.8893 126.249L34.8481 126.533C34.4754 127.791 34.1132 129.056 33.7618 130.33L32.7978 130.064ZM35.0535 122.457L34.1005 122.154C34.5049 120.882 34.9202 119.618 35.3462 118.363L36.2931 118.684L37.24 119.006C36.8182 120.248 36.407 121.5 36.0066 122.76L35.0535 122.457ZM37.6044 114.945L36.6641 114.605C37.1195 113.347 37.5857 112.1 38.0627 110.862L38.9958 111.221L39.9289 111.581C39.4568 112.806 38.9954 114.041 38.5447 115.286L37.6044 114.945ZM40.4568 107.545L39.5314 107.166C40.0391 105.926 40.5577 104.697 41.0872 103.479L42.0043 103.878L42.9214 104.276C42.3977 105.481 41.8845 106.697 41.3822 107.924L40.4568 107.545ZM43.6212 100.265L42.713 99.8466C43.2735 98.6302 43.845 97.4254 44.4273 96.2328L45.3259 96.6715L46.2245 97.1102C45.6489 98.2893 45.0838 99.4806 44.5294 100.684L43.6212 100.265ZM47.1055 93.129L46.2172 92.6699C46.831 91.4821 47.4558 90.3072 48.0912 89.1454L48.9686 89.6252L49.8459 90.1051C49.218 91.2531 48.6006 92.4142 47.9939 93.5881L47.1055 93.129ZM50.9163 86.1637L50.0508 85.6628C50.719 84.5083 51.398 83.3676 52.0877 82.2413L52.9405 82.7635L53.7933 83.2857C53.1124 84.3978 52.4418 85.5242 51.7818 86.6646L50.9163 86.1637ZM55.0619 79.3961L54.2228 78.8522C54.9494 77.7311 55.6869 76.6252 56.435 75.535L57.2595 76.1008L58.0841 76.6666C57.346 77.7422 56.6183 78.8334 55.9011 79.9399L55.0619 79.3961ZM59.551 72.8567L58.7422 72.2686C59.5302 71.1847 60.3292 70.1176 61.1388 69.0677L61.9307 69.6783L62.7227 70.2889C61.9246 71.3239 61.1369 72.3759 60.3598 73.4448L59.551 72.8567ZM64.3914 66.5808L63.6176 65.9474C64.4691 64.9072 65.3315 63.8854 66.2045 62.8824L66.9588 63.539L67.7131 64.1956C66.8535 65.183 66.0041 66.1895 65.1652 67.2142L64.3914 66.5808ZM69.6082 60.5894L68.8749 59.9095C69.7856 58.9272 70.7071 57.965 71.639 57.0232L72.3498 57.7266L73.0606 58.43C72.1442 59.3561 71.2377 60.3027 70.3415 61.2693L69.6082 60.5894ZM75.1932 54.9482L74.5067 54.2211C75.4808 53.3012 76.4656 52.4032 77.4607 51.5275L78.1213 52.2783L78.7819 53.029C77.8047 53.889 76.8372 54.7712 75.8798 55.6752L75.1932 54.9482ZM81.1467 49.712L80.514 48.9377C81.5548 48.0872 82.6062 47.2607 83.6677 46.4589L84.2705 47.2568L84.8733 48.0547C83.8323 48.8411 82.8009 49.6518 81.7794 50.4864L81.1467 49.712ZM87.4792 44.9305L86.9084 44.1093C88.0105 43.3433 89.1228 42.6033 90.245 41.8898L90.7815 42.7337L91.318 43.5776C90.2193 44.2761 89.1298 45.0009 88.0499 45.7516L87.4792 44.9305ZM94.1785 40.674L93.6785 39.808C94.8407 39.1371 96.0128 38.4943 97.1942 37.8803L97.6554 38.7676L98.1165 39.655C96.9616 40.2552 95.8154 40.8837 94.6784 41.5401L94.1785 40.674ZM101.213 37.0204L100.793 36.1129C102.013 35.5484 103.242 35.0142 104.479 34.511L104.856 35.4374L105.233 36.3638C104.024 36.8549 102.824 37.3765 101.633 37.9279L101.213 37.0204ZM108.566 34.033L108.235 33.0894C109.5 32.6455 110.774 32.2338 112.056 31.8547L112.339 32.8137L112.623 33.7726C111.373 34.1422 110.131 34.5436 108.897 34.9766L108.566 34.033ZM116.172 31.7856L115.938 30.8135C117.24 30.4997 118.55 30.2195 119.868 29.9736L120.051 30.9566L120.235 31.9396C118.952 32.1791 117.675 32.4521 116.406 32.7578L116.172 31.7856ZM123.968 30.331L123.837 29.3397C125.163 29.1635 126.497 29.0218 127.837 28.9154L127.916 29.9123L127.995 30.9092C126.691 31.0128 125.392 31.1506 124.1 31.3223L123.968 30.331ZM131.874 29.7031L131.847 28.7034C132.518 28.6857 133.19 28.6768 133.864 28.6768L133.864 29.6768L133.864 30.6768C133.208 30.6768 132.553 30.6854 131.9 30.7027L131.874 29.7031ZM133.864 29.6768V28.6768C134.515 28.6768 135.164 28.6851 135.812 28.7016L135.786 29.7013L135.761 30.7009C135.13 30.6848 134.498 30.6768 133.864 30.6768V29.6768ZM139.62 29.8973L139.697 28.9003C140.994 28.9998 142.284 29.1324 143.569 29.2975L143.441 30.2894L143.314 31.2812C142.063 31.1205 140.806 30.9913 139.544 30.8943L139.62 29.8973ZM147.236 30.8757L147.414 29.8915C148.691 30.1222 149.961 30.3849 151.224 30.6793L150.997 31.6532L150.77 32.6271C149.54 32.3403 148.302 32.0844 147.059 31.8597L147.236 30.8757ZM154.714 32.6176L154.989 31.6561C156.234 32.0122 157.472 32.3991 158.701 32.8163L158.38 33.7633L158.059 34.7103C156.86 34.3034 155.653 33.9261 154.439 33.579L154.714 32.6176ZM161.986 35.0833L162.352 34.1526C163.555 34.6256 164.75 35.1277 165.936 35.6585L165.527 36.5713L165.119 37.4841C163.961 36.9658 162.794 36.4755 161.62 36.014L161.986 35.0833ZM168.996 38.2179L169.445 37.3243C170.597 37.9034 171.742 38.5098 172.876 39.1428L172.389 40.0162L171.902 40.8895C170.792 40.2702 169.674 39.6774 168.547 39.1115L168.996 38.2179ZM175.704 41.9581L176.228 41.106C177.325 41.7798 178.413 42.4789 179.491 43.2028L178.934 44.0331L178.376 44.8634C177.32 44.1544 176.255 43.4698 175.181 42.8103L175.704 41.9581ZM182.08 46.2358L182.67 45.4279C183.71 46.1862 184.74 46.9678 185.76 47.7724L185.141 48.5577L184.522 49.343C183.521 48.5537 182.511 47.7872 181.491 47.0438L182.08 46.2358ZM188.112 50.9885L188.759 50.226C189.739 51.0576 190.71 51.9107 191.67 52.7849L190.997 53.5244L190.324 54.2639C189.38 53.4052 188.427 52.5674 187.465 51.751L188.112 50.9885ZM193.795 56.1586L194.493 55.442C195.413 56.3372 196.323 57.2521 197.223 58.1863L196.502 58.8801L195.782 59.5739C194.897 58.655 194.002 57.7553 193.098 56.8752L193.795 56.1586ZM199.123 61.6867L199.864 61.0156C200.726 61.9673 201.577 62.9371 202.419 63.9246L201.658 64.5732L200.897 65.2218C200.068 64.2493 199.229 63.2946 198.381 62.3578L199.123 61.6867ZM204.107 67.5342L204.887 66.9078C205.69 67.9074 206.483 68.9236 207.266 69.9559L206.47 70.5602L205.673 71.1646C204.901 70.1469 204.119 69.1454 203.328 68.1605L204.107 67.5342ZM208.748 73.6506L209.561 73.0681C209.936 73.5916 210.309 74.1188 210.679 74.6499L209.858 75.2217L209.038 75.7935C208.673 75.2696 208.305 74.7495 207.935 74.2332L208.748 73.6506ZM209.858 75.2217L209.444 74.3116C210.051 74.0353 210.659 73.7668 211.269 73.5064L211.662 74.4261L212.054 75.3458C211.459 75.6 210.865 75.8619 210.273 76.1317L209.858 75.2217ZM215.324 72.968L214.977 72.03C216.23 71.5668 217.49 71.137 218.756 70.7413L219.054 71.6958L219.353 72.6503C218.119 73.0356 216.892 73.4543 215.67 73.9059L215.324 72.968ZM222.846 70.6195L222.599 69.6506C223.892 69.3204 225.191 69.0257 226.495 68.7669L226.69 69.7479L226.884 70.7288C225.615 70.9804 224.352 71.2671 223.093 71.5884L222.846 70.6195ZM230.576 69.0881L230.436 68.098C231.755 67.9116 233.079 67.7619 234.408 67.6494L234.492 68.6458L234.577 69.6423C233.285 69.7516 231.998 69.8971 230.716 70.0783L230.576 69.0881ZM238.428 68.4242L238.4 67.4246C239.065 67.4059 239.731 67.3965 240.398 67.3965V68.3965V69.3965C239.75 69.3965 239.102 69.4056 238.456 69.4238L238.428 68.4242ZM240.398 68.3965V67.3965C241.072 67.3965 241.744 67.406 242.415 67.425L242.387 68.4247L242.359 69.4243C241.706 69.4058 241.053 69.3965 240.398 69.3965V68.3965ZM246.342 68.6489L246.427 67.6525C247.764 67.7663 249.095 67.9177 250.421 68.1063L250.28 69.0963L250.14 70.0863C248.851 69.9031 247.557 69.7559 246.258 69.6453L246.342 68.6489ZM254.187 69.7634L254.383 68.7827C255.694 69.0442 257 69.342 258.299 69.6755L258.05 70.6441L257.801 71.6127C256.537 71.2881 255.267 70.9984 253.992 70.7441L254.187 69.7634ZM261.86 71.7316L262.16 70.7776C263.434 71.1779 264.701 71.6127 265.961 72.0814L265.613 73.0187L265.264 73.9559C264.036 73.4991 262.801 73.0755 261.56 72.6857L261.86 71.7316ZM269.285 74.4891L269.68 73.5702C270.907 74.097 272.128 74.6561 273.341 75.2469L272.903 76.1461L272.465 77.0451C271.28 76.4679 270.089 75.9221 268.891 75.4081L269.285 74.4891ZM276.412 77.9547L276.89 77.0764C278.058 77.7124 279.22 78.3782 280.374 79.0732L279.859 79.9299L279.343 80.7867C278.213 80.1064 277.076 79.455 275.933 78.833L276.412 77.9547ZM283.206 82.0405L283.756 81.2057C284.863 81.9356 285.963 82.6926 287.055 83.4762L286.472 84.2888L285.889 85.1013C284.818 84.3327 283.74 83.5906 282.655 82.8753L283.206 82.0405ZM289.651 86.6606L290.264 85.8702C291.308 86.6799 292.346 87.5142 293.376 88.3727L292.736 89.141L292.096 89.9092C291.083 89.0656 290.064 88.246 289.039 87.4509L289.651 86.6606ZM295.746 91.7358L296.411 90.9894C297.395 91.8669 298.372 92.7668 299.343 93.6885L298.654 94.4135L297.965 95.1384C297.01 94.2309 296.048 93.3454 295.08 92.4822L295.746 91.7358ZM301.495 97.197L302.206 96.4932C303.132 97.4287 304.052 98.3845 304.965 99.3602L304.235 100.043L303.504 100.727C302.604 99.7645 301.698 98.8224 300.785 97.9008L301.495 97.197ZM306.912 102.985L307.661 102.322C308.533 103.308 309.399 104.312 310.258 105.334L309.493 105.978L308.727 106.621C307.879 105.612 307.024 104.621 306.163 103.648L306.912 102.985ZM312.011 109.052L312.793 108.428C313.615 109.458 314.431 110.504 315.24 111.567L314.444 112.173L313.648 112.778C312.849 111.727 312.043 110.693 311.23 109.676L312.011 109.052ZM316.81 115.357L317.62 114.77C318.395 115.839 319.165 116.923 319.927 118.023L319.105 118.593L318.283 119.162C317.529 118.074 316.768 117.002 316.001 115.945L316.81 115.357ZM321.326 121.869L322.159 121.316C322.892 122.42 323.617 123.539 324.336 124.672L323.492 125.208L322.647 125.743C321.935 124.622 321.217 123.514 320.493 122.421L321.326 121.869ZM325.574 128.56L326.429 128.04C327.12 129.176 327.804 130.326 328.482 131.489L327.618 131.993L326.755 132.496C326.083 131.344 325.404 130.205 324.72 129.079L325.574 128.56ZM329.57 135.409L330.443 134.92C331.09 136.076 331.73 137.244 332.364 138.425L331.483 138.898L330.603 139.371C329.974 138.201 329.339 137.043 328.697 135.897L329.57 135.409ZM333.327 142.398L334.215 141.939C334.821 143.111 335.419 144.295 336.012 145.489L335.116 145.933L334.22 146.378C333.632 145.193 333.038 144.019 332.438 142.857L333.327 142.398ZM336.857 149.513L337.76 149.082C338.325 150.268 338.884 151.463 339.437 152.669L338.528 153.086L337.619 153.503C337.071 152.306 336.516 151.12 335.955 149.943L336.857 149.513ZM340.163 156.721L341.078 156.317C341.608 157.52 342.133 158.733 342.651 159.955L341.731 160.345L340.81 160.736C340.295 159.522 339.775 158.318 339.248 157.124L340.163 156.721ZM343.254 164.006L344.18 163.628C344.68 164.855 345.175 166.091 345.663 167.335L344.732 167.701L343.801 168.066C343.316 166.829 342.825 165.602 342.328 164.384L343.254 164.006ZM346.149 171.383L347.085 171.03C347.552 172.27 348.014 173.518 348.47 174.775L347.53 175.116L346.59 175.457C346.137 174.208 345.678 172.968 345.213 171.736L346.149 171.383ZM348.856 178.844L349.8 178.514C350.234 179.759 350.662 181.012 351.085 182.272L350.137 182.59L349.188 182.908C348.769 181.655 348.343 180.41 347.912 179.173L348.856 178.844ZM351.381 186.382L352.333 186.076C352.735 187.324 353.131 188.58 353.521 189.843L352.566 190.138L351.61 190.433C351.222 189.178 350.829 187.929 350.429 186.688L351.381 186.382ZM353.715 193.938L354.674 193.654C355.05 194.923 355.42 196.199 355.785 197.482L354.823 197.755L353.861 198.028C353.498 196.753 353.13 195.484 352.756 194.222L353.715 193.938ZM355.88 201.559L356.845 201.297C357.193 202.575 357.535 203.859 357.871 205.15L356.904 205.402L355.936 205.654C355.602 204.37 355.261 203.093 354.916 201.822L355.88 201.559ZM357.882 209.242L358.852 209C359.171 210.279 359.483 211.563 359.79 212.853L358.818 213.085L357.845 213.316C357.539 212.033 357.228 210.755 356.912 209.484L357.882 209.242ZM359.719 216.963L360.694 216.742C360.986 218.026 361.271 219.316 361.552 220.612L360.574 220.823L359.597 221.035C359.318 219.746 359.034 218.462 358.744 217.184L359.719 216.963ZM361.392 224.698L362.371 224.496C362.639 225.797 362.9 227.102 363.156 228.413L362.175 228.604L361.193 228.796C360.939 227.492 360.678 226.193 360.412 224.899L361.392 224.698ZM362.913 232.483L363.896 232.301C364.136 233.599 364.371 234.902 364.6 236.21L363.615 236.383L362.63 236.555C362.402 235.254 362.169 233.957 361.929 232.665L362.913 232.483ZM364.284 240.312L365.27 240.149C365.485 241.446 365.694 242.748 365.897 244.054L364.909 244.208L363.921 244.361C363.718 243.061 363.511 241.766 363.297 240.475L364.284 240.312ZM365.499 248.127L366.489 247.983C366.681 249.297 366.867 250.615 367.047 251.938L366.057 252.073L365.066 252.208C364.886 250.892 364.701 249.579 364.51 248.272L365.499 248.127ZM366.572 255.984L367.564 255.858C367.73 257.169 367.891 258.483 368.047 259.802L367.054 259.919L366.06 260.036C365.906 258.724 365.746 257.415 365.58 256.11L366.572 255.984ZM367.502 263.878L368.496 263.77C368.638 265.077 368.774 266.389 368.905 267.704L367.91 267.803L366.915 267.902C366.785 266.593 366.649 265.287 366.508 263.986L367.502 263.878ZM368.286 271.749L369.281 271.658C369.401 272.98 369.515 274.306 369.624 275.635L368.627 275.716L367.631 275.797C367.523 274.474 367.409 273.155 367.29 271.839L368.286 271.749ZM368.931 279.654L369.929 279.581C370.025 280.898 370.115 282.219 370.2 283.543L369.202 283.607L368.204 283.671C368.12 282.352 368.03 281.038 367.934 279.726L368.931 279.654ZM369.439 287.579L370.438 287.524C370.511 288.84 370.578 290.159 370.64 291.481L369.641 291.527L368.642 291.574C368.581 290.258 368.513 288.944 368.441 287.634L369.439 287.579ZM369.809 295.484L370.808 295.446C370.859 296.771 370.904 298.099 370.943 299.429L369.944 299.459L368.944 299.488C368.905 298.163 368.86 296.841 368.81 295.522L369.809 295.484ZM370.044 303.416L371.044 303.395C371.072 304.715 371.094 306.037 371.111 307.361L370.111 307.374L369.111 307.387C369.094 306.068 369.072 304.751 369.044 303.437L370.044 303.416ZM370.144 311.347L371.144 311.343C371.147 312.008 371.148 312.674 371.148 313.34H370.148H369.148C369.148 312.676 369.147 312.014 369.144 311.352L370.144 311.347ZM370.148 313.34H371.148C371.148 314.006 371.147 314.672 371.144 315.336L370.144 315.332L369.144 315.328C369.147 314.666 369.148 314.003 369.148 313.34H370.148ZM370.111 319.306L371.111 319.318C371.094 320.643 371.072 321.965 371.044 323.284L370.044 323.263L369.044 323.242C369.072 321.928 369.094 320.612 369.111 319.293L370.111 319.306ZM369.944 327.221L370.943 327.25C370.904 328.581 370.859 329.909 370.808 331.233L369.809 331.195L368.81 331.157C368.86 329.838 368.905 328.516 368.944 327.191L369.944 327.221ZM369.641 335.152L370.64 335.199C370.578 336.521 370.511 337.84 370.438 339.156L369.439 339.101L368.441 339.045C368.514 337.735 368.581 336.422 368.642 335.105L369.641 335.152ZM369.202 343.073L370.2 343.137C370.115 344.461 370.025 345.781 369.929 347.099L368.931 347.026L367.934 346.953C368.03 345.642 368.12 344.327 368.204 343.009L369.202 343.073ZM368.627 350.964L369.624 351.045C369.515 352.374 369.401 353.699 369.282 355.021L368.286 354.931L367.29 354.841C367.409 353.525 367.523 352.205 367.631 350.882L368.627 350.964ZM367.91 358.877L368.905 358.976C368.775 360.291 368.638 361.602 368.496 362.91L367.502 362.802L366.508 362.694C366.649 361.392 366.785 360.087 366.915 358.778L367.91 358.877ZM367.054 366.761L368.047 366.878C367.891 368.196 367.73 369.511 367.564 370.821L366.572 370.695L365.58 370.569C365.746 369.265 365.906 367.956 366.06 366.644L367.054 366.761ZM366.057 374.606L367.047 374.742C366.867 376.064 366.681 377.383 366.489 378.697L365.499 378.553L364.51 378.408C364.701 377.1 364.886 375.788 365.066 374.471L366.057 374.606ZM364.909 382.472L365.897 382.626C365.694 383.932 365.485 385.234 365.271 386.531L364.284 386.368L363.297 386.205C363.511 384.914 363.718 383.619 363.921 382.319L364.909 382.472ZM363.615 390.297L364.6 390.469C364.371 391.777 364.136 393.08 363.896 394.379L362.913 394.197L361.929 394.014C362.169 392.723 362.402 391.426 362.63 390.124L363.615 390.297ZM362.175 398.075L363.156 398.267C362.9 399.578 362.639 400.883 362.371 402.183L361.392 401.982L360.412 401.78C360.678 400.487 360.939 399.188 361.193 397.884L362.175 398.075ZM360.574 405.856L361.552 406.068C361.271 407.363 360.986 408.654 360.694 409.938L359.719 409.717L358.744 409.495C359.034 408.218 359.318 406.934 359.597 405.645L360.574 405.856ZM358.818 413.595L359.79 413.826C359.483 415.117 359.171 416.401 358.852 417.679L357.882 417.438L356.912 417.196C357.228 415.925 357.539 414.647 357.845 413.363L358.818 413.595ZM356.904 421.278L357.871 421.53C357.535 422.821 357.193 424.105 356.845 425.383L355.88 425.121L354.916 424.858C355.262 423.587 355.602 422.31 355.936 421.026L356.904 421.278ZM354.823 428.925L355.785 429.198C355.42 430.481 355.05 431.757 354.674 433.026L353.715 432.742L352.756 432.458C353.13 431.196 353.498 429.927 353.861 428.651L354.823 428.925ZM352.566 436.542L353.521 436.837C353.131 438.1 352.735 439.356 352.333 440.604L351.381 440.298L350.429 439.992C350.829 438.751 351.222 437.502 351.61 436.247L352.566 436.542ZM350.137 444.09L351.085 444.408C350.662 445.668 350.234 446.921 349.8 448.166L348.856 447.836L347.912 447.507C348.343 446.27 348.769 445.025 349.188 443.772L350.137 444.09ZM347.53 451.564L348.47 451.905C348.014 453.162 347.552 454.41 347.085 455.65L346.149 455.297L345.213 454.944C345.678 453.712 346.137 452.472 346.59 451.223L347.53 451.564ZM344.732 458.979L345.663 459.345C345.175 460.589 344.68 461.825 344.18 463.052L343.254 462.674L342.328 462.296C342.825 461.078 343.316 459.851 343.801 458.614L344.732 458.979ZM341.731 466.335L342.651 466.726C342.133 467.947 341.609 469.16 341.078 470.363L340.163 469.959L339.248 469.556C339.775 468.362 340.295 467.158 340.81 465.944L341.731 466.335ZM338.528 473.594L339.437 474.011C338.884 475.217 338.325 476.412 337.76 477.598L336.857 477.167L335.955 476.737C336.516 475.561 337.071 474.374 337.62 473.177L338.528 473.594ZM335.116 480.747L336.012 481.191C335.419 482.386 334.821 483.569 334.216 484.741L333.327 484.282L332.438 483.823C333.038 482.661 333.632 481.487 334.22 480.302L335.116 480.747ZM331.483 487.782L332.364 488.256C331.73 489.436 331.09 490.604 330.443 491.76L329.57 491.271L328.697 490.783C329.339 489.637 329.974 488.479 330.603 487.309L331.483 487.782ZM327.618 494.688L328.482 495.191C327.804 496.354 327.12 497.504 326.429 498.64L325.574 498.12L324.72 497.601C325.404 496.475 326.083 495.336 326.755 494.184L327.618 494.688ZM323.492 501.473L324.336 502.008C323.617 503.141 322.892 504.26 322.16 505.364L321.326 504.811L320.493 504.259C321.217 503.166 321.936 502.059 322.647 500.937L323.492 501.473ZM319.105 508.088L319.927 508.657C319.165 509.757 318.396 510.841 317.62 511.91L316.811 511.323L316.001 510.735C316.768 509.679 317.529 508.606 318.283 507.518L319.105 508.088ZM314.444 514.507L315.24 515.113C314.431 516.176 313.615 517.223 312.793 518.252L312.011 517.628L311.23 517.004C312.043 515.987 312.849 514.953 313.648 513.902L314.444 514.507ZM309.493 520.703L310.258 521.346C309.399 522.368 308.533 523.372 307.661 524.358L306.912 523.695L306.163 523.032C307.024 522.06 307.879 521.069 308.727 520.059L309.493 520.703ZM304.235 526.637L304.965 527.32C304.052 528.296 303.132 529.252 302.206 530.187L301.495 529.483L300.785 528.78C301.698 527.858 302.604 526.916 303.504 525.954L304.235 526.637ZM298.654 532.267L299.343 532.992C298.373 533.914 297.395 534.813 296.411 535.691L295.746 534.945L295.08 534.198C296.048 533.335 297.01 532.449 297.965 531.542L298.654 532.267ZM292.736 537.539L293.376 538.308C292.346 539.166 291.309 540 290.264 540.81L289.651 540.02L289.039 539.23C290.064 538.434 291.084 537.615 292.096 536.771L292.736 537.539ZM286.472 542.392L287.055 543.204C285.963 543.988 284.863 544.745 283.756 545.475L283.206 544.64L282.655 543.805C283.74 543.09 284.818 542.348 285.889 541.579L286.472 542.392ZM279.859 546.751L280.375 547.607C279.22 548.302 278.058 548.968 276.89 549.604L276.412 548.726L275.934 547.848C277.076 547.226 278.213 546.574 279.343 545.894L279.859 546.751ZM272.903 550.535L273.341 551.434C272.128 552.024 270.907 552.584 269.68 553.11L269.285 552.191L268.891 551.273C270.089 550.758 271.28 550.213 272.465 549.635L272.903 550.535ZM265.613 553.662L265.962 554.599C264.701 555.068 263.434 555.503 262.16 555.903L261.86 554.949L261.56 553.995C262.801 553.605 264.036 553.182 265.265 552.725L265.613 553.662ZM258.05 556.037L258.299 557.005C257 557.339 255.694 557.636 254.383 557.898L254.187 556.917L253.992 555.937C255.267 555.682 256.537 555.393 257.801 555.068L258.05 556.037ZM250.28 557.584L250.421 558.574C249.095 558.763 247.764 558.914 246.427 559.028L246.342 558.032L246.258 557.035C247.557 556.925 248.851 556.778 250.14 556.594L250.28 557.584ZM242.387 558.256L242.415 559.256C241.744 559.275 241.072 559.284 240.398 559.284V558.284V557.284C241.053 557.284 241.706 557.275 242.359 557.256L242.387 558.256ZM240.398 558.284V559.284C239.662 559.284 238.928 559.273 238.194 559.25L238.225 558.25L238.256 557.251C238.969 557.273 239.683 557.284 240.398 557.284V558.284ZM233.887 557.981L233.794 558.977C232.33 558.84 230.871 558.658 229.42 558.432L229.574 557.444L229.728 556.456C231.139 556.676 232.557 556.852 233.98 556.985L233.887 557.981ZM225.302 556.644L225.088 557.62C223.656 557.307 222.231 556.95 220.814 556.551L221.085 555.589L221.357 554.626C222.736 555.015 224.123 555.362 225.516 555.667L225.302 556.644ZM216.938 554.29L216.612 555.235C215.23 554.759 213.857 554.242 212.492 553.685L212.87 552.759L213.247 551.833C214.579 552.376 215.918 552.88 217.264 553.344L216.938 554.29ZM208.89 551.011L208.464 551.915C207.803 551.604 207.144 551.283 206.487 550.953L206.936 550.06L207.385 549.166C208.027 549.489 208.67 549.802 209.316 550.106L208.89 551.011ZM206.936 550.06L207.77 550.611C207.386 551.191 207 551.767 206.612 552.337L205.786 551.773L204.959 551.21C205.342 550.648 205.723 550.081 206.101 549.508L206.936 550.06ZM203.413 555.144L204.222 555.732C203.4 556.862 202.568 557.969 201.727 559.051L200.937 558.437L200.148 557.824C200.976 556.759 201.795 555.669 202.605 554.556L203.413 555.144ZM198.351 561.648L199.119 562.289C198.223 563.363 197.316 564.41 196.399 565.429L195.656 564.76L194.912 564.092C195.812 563.091 196.702 562.063 197.583 561.007L198.351 561.648ZM192.838 567.773L193.554 568.47C192.576 569.475 191.587 570.449 190.587 571.392L189.901 570.664L189.215 569.937C190.193 569.014 191.162 568.06 192.121 567.075L192.838 567.773ZM186.842 573.421L187.494 574.179C186.428 575.096 185.352 575.977 184.265 576.821L183.651 576.032L183.038 575.242C184.098 574.418 185.149 573.558 186.19 572.663L186.842 573.421ZM180.331 578.475L180.902 579.296C179.747 580.098 178.581 580.861 177.404 581.582L176.882 580.729L176.359 579.876C177.502 579.176 178.636 578.435 179.76 577.653L180.331 578.475ZM173.305 582.774L173.774 583.657C172.531 584.317 171.278 584.931 170.014 585.498L169.604 584.586L169.195 583.673C170.417 583.125 171.631 582.53 172.836 581.891L173.305 582.774ZM165.789 586.141L166.134 587.08C164.814 587.564 163.485 587.998 162.146 588.38L161.872 587.418L161.598 586.456C162.888 586.088 164.171 585.67 165.445 585.203L165.789 586.141ZM157.869 588.394L158.068 589.374C156.694 589.653 155.312 589.878 153.922 590.047L153.801 589.054L153.681 588.061C155.018 587.899 156.348 587.683 157.67 587.414L157.869 588.394ZM149.694 589.386L149.734 590.385C149.036 590.414 148.336 590.428 147.634 590.428V589.428V588.428C148.309 588.428 148.982 588.414 149.654 588.387L149.694 589.386ZM147.634 589.428V591.428V589.428ZM206.936 550.06L205.267 548.957L206.246 547.475L207.834 548.273L206.936 550.06ZM240.398 558.284V560.284H240.398L240.398 558.284ZM370.148 313.34H372.148H370.148ZM240.398 68.3965L240.398 66.3965H240.398V68.3965ZM209.858 75.2217L210.687 77.0417L209.171 77.7326L208.218 76.3652L209.858 75.2217ZM133.864 29.6768L133.864 27.6768H133.864V29.6768ZM24.7695 190.868H22.7695H24.7695ZM65.3691 316.336L66.9021 315.051L67.6011 315.886L67.2803 316.926L65.3691 316.336ZM52.3076 408.035H50.3076H52.3076ZM147.634 589.428V591.428C146.942 591.428 146.252 591.414 145.563 591.387L145.641 589.389L145.719 587.39C146.356 587.415 146.994 587.428 147.634 587.428V589.428ZM141.681 589.08L141.448 591.066C140.081 590.906 138.721 590.693 137.369 590.428L137.754 588.465L138.138 586.503C139.39 586.748 140.649 586.945 141.914 587.093L141.681 589.08ZM133.886 587.555L133.355 589.484C132.037 589.121 130.729 588.71 129.43 588.25L130.097 586.365L130.764 584.479C131.974 584.908 133.192 585.29 134.416 585.627L133.886 587.555ZM126.4 584.911L125.606 586.747C124.358 586.206 123.12 585.621 121.892 584.993L122.804 583.213L123.715 581.433C124.867 582.023 126.027 582.571 127.195 583.076L126.4 584.911ZM119.314 581.289L118.296 583.01C117.136 582.324 115.986 581.599 114.847 580.836L115.961 579.175L117.074 577.513C118.152 578.236 119.238 578.92 120.331 579.567L119.314 581.289ZM112.723 576.878L111.524 578.478C110.446 577.671 109.378 576.828 108.321 575.952L109.597 574.412L110.874 572.873C111.882 573.708 112.898 574.51 113.922 575.277L112.723 576.878ZM106.589 571.799L105.244 573.279C104.256 572.381 103.278 571.452 102.31 570.494L103.716 569.073L105.123 567.651C106.052 568.57 106.989 569.46 107.935 570.319L106.589 571.799ZM100.946 566.219L99.4841 567.584C98.5676 566.603 97.6609 565.594 96.7642 564.56L98.2757 563.25L99.7871 561.94C100.652 562.938 101.526 563.91 102.408 564.855L100.946 566.219ZM95.7372 560.216L94.1817 561.473C93.3423 560.434 92.5123 559.372 91.692 558.287L93.2874 557.081L94.8828 555.875C95.6776 556.926 96.481 557.954 97.2927 558.959L95.7372 560.216ZM90.9324 553.864L89.3009 555.021C88.5331 553.938 87.7743 552.835 87.0248 551.711L88.6886 550.601L90.3524 549.491C91.0812 550.584 91.8184 551.656 92.5638 552.707L90.9324 553.864ZM86.5211 547.253L84.8277 548.317C84.1206 547.192 83.4223 546.049 82.7331 544.887L84.4531 543.866L86.1732 542.846C86.8453 543.979 87.5258 545.093 88.2144 546.189L86.5211 547.253ZM82.4675 540.424L80.7232 541.403C80.0704 540.239 79.4264 539.058 78.7912 537.861L80.5579 536.924L82.3245 535.986C82.9454 537.156 83.5746 538.309 84.2119 539.446L82.4675 540.424ZM78.7401 533.404L76.9532 534.302C76.3528 533.108 75.761 531.899 75.1779 530.675L76.9835 529.814L78.7891 528.954C79.3602 530.153 79.9396 531.337 80.527 532.506L78.7401 533.404ZM75.3187 526.226L73.4961 527.049C72.947 525.834 72.4063 524.605 71.8741 523.363L73.7125 522.575L75.5509 521.788C76.0729 523.006 76.6032 524.211 77.1413 525.403L75.3187 526.226ZM72.1852 518.916L70.3324 519.669C69.8312 518.436 69.3381 517.19 68.8533 515.933L70.7194 515.213L72.5856 514.494C73.0617 515.729 73.5459 516.952 74.038 518.163L72.1852 518.916ZM69.3235 511.495L67.4451 512.182C66.9885 510.933 66.5401 509.673 66.0997 508.402L67.9895 507.747L69.8793 507.093C70.3123 508.342 70.7532 509.581 71.2019 510.809L69.3235 511.495ZM66.7193 503.981L64.819 504.605C64.4046 503.342 63.9982 502.069 63.5998 500.786L65.5098 500.193L67.4198 499.6C67.8119 500.863 68.2119 502.115 68.6196 503.357L66.7193 503.981ZM64.3601 496.387L62.4411 496.951C62.0668 495.676 61.7002 494.391 61.3416 493.098L63.2689 492.564L65.1962 492.029C65.5494 493.303 65.9104 494.568 66.2791 495.824L64.3601 496.387ZM62.2351 488.725L60.3001 489.231C59.9639 487.945 59.6354 486.651 59.3148 485.348L61.2569 484.87L63.199 484.392C63.515 485.676 63.8387 486.952 64.17 488.219L62.2351 488.725ZM60.3348 481.005L58.3862 481.456C58.0865 480.16 57.7946 478.856 57.5106 477.544L59.4652 477.121L61.4199 476.697C61.7001 477.991 61.9879 479.277 62.2834 480.555L60.3348 481.005ZM58.651 473.235L56.6908 473.632C56.4265 472.327 56.1699 471.015 55.9211 469.695L57.8864 469.325L59.8517 468.954C60.0973 470.256 60.3505 471.551 60.6112 472.838L58.651 473.235ZM57.1767 465.422L55.2067 465.767C54.9767 464.454 54.7544 463.134 54.5397 461.808L56.5141 461.488L58.4884 461.169C58.7003 462.478 58.9198 463.781 59.1468 465.077L57.1767 465.422ZM55.906 457.573L53.9278 457.868C53.7314 456.548 53.5426 455.223 53.3615 453.892L55.3432 453.622L57.325 453.352C57.5038 454.667 57.6903 455.976 57.8842 457.279L55.906 457.573ZM54.8335 449.694L52.8486 449.939C52.6854 448.617 52.5297 447.29 52.3816 445.957L54.3694 445.736L56.3572 445.515C56.5034 446.832 56.6572 448.143 56.8185 449.449L54.8335 449.694ZM53.955 441.789L51.9647 441.986C51.8338 440.662 51.7105 439.334 51.5947 438.001L53.5872 437.828L55.5797 437.655C55.6941 438.972 55.816 440.285 55.9453 441.592L53.955 441.789ZM53.2666 433.863L51.2722 434.013C51.173 432.689 51.0813 431.36 50.9972 430.028L52.9932 429.901L54.9892 429.775C55.0724 431.093 55.163 432.406 55.261 433.714L53.2666 433.863ZM52.7652 425.922L50.7679 426.025C50.6998 424.701 50.6391 423.373 50.586 422.041L52.5844 421.961L54.5828 421.882C54.6353 423.198 54.6953 424.511 54.7626 425.819L52.7652 425.922ZM52.4484 417.977L50.4492 418.034C50.4115 416.708 50.3814 415.379 50.3587 414.046L52.3584 414.012L54.3581 413.978C54.3805 415.295 54.4104 416.61 54.4476 417.92L52.4484 417.977ZM52.3133 410.033L50.3133 410.044C50.3095 409.375 50.3076 408.706 50.3076 408.035H52.3076H54.3076C54.3076 408.698 54.3095 409.36 54.3132 410.021L52.3133 410.033ZM52.3076 408.035H50.3076C50.3076 407.385 50.3094 406.735 50.313 406.086L52.3129 406.097L54.3129 406.108C54.3094 406.75 54.3076 407.392 54.3076 408.035H52.3076ZM52.3556 402.224L50.3559 402.191C50.3774 400.89 50.4061 399.591 50.4419 398.297L52.4412 398.352L54.4404 398.407C54.405 399.687 54.3766 400.971 54.3553 402.257L52.3556 402.224ZM52.5699 394.48L50.5714 394.402C50.6219 393.101 50.6796 391.803 50.7444 390.51L52.7419 390.61L54.7394 390.71C54.6753 391.989 54.6183 393.271 54.5683 394.557L52.5699 394.48ZM52.9576 386.743L50.9613 386.621C51.0412 385.32 51.1283 384.024 51.2225 382.733L53.2172 382.878L55.2119 383.024C55.1188 384.3 55.0328 385.581 54.9538 386.866L52.9576 386.743ZM53.5212 379.016L51.5283 378.847C51.6381 377.549 51.755 376.256 51.879 374.967L53.8698 375.158L55.8606 375.35C55.7381 376.623 55.6226 377.902 55.5141 379.184L53.5212 379.016ZM54.2633 371.306L52.2749 371.091C52.415 369.795 52.5624 368.504 52.7169 367.218L54.7026 367.456L56.6883 367.695C56.5357 368.965 56.3902 370.241 56.2517 371.521L54.2633 371.306ZM55.1876 363.613L53.2048 363.351C53.3758 362.059 53.554 360.772 53.7393 359.491L55.7187 359.778L57.6981 360.064C57.5151 361.329 57.3391 362.6 57.1703 363.875L55.1876 363.613ZM56.2972 355.946L54.3215 355.635C54.5242 354.347 54.7341 353.064 54.9513 351.788L56.9229 352.123L58.8946 352.459C58.6803 353.719 58.473 354.985 58.2729 356.257L56.2972 355.946ZM57.5964 348.311L55.6292 347.95C55.8644 346.666 56.107 345.389 56.3568 344.118L58.3193 344.503L60.2817 344.889C60.0352 346.143 59.7958 347.404 59.5637 348.671L57.5964 348.311ZM59.0911 340.708L57.1338 340.296C57.4024 339.019 57.6783 337.749 57.9614 336.486L59.913 336.923L61.8646 337.361C61.5853 338.606 61.3132 339.859 61.0483 341.119L59.0911 340.708ZM60.7862 333.148L58.8408 332.684C59.1437 331.414 59.4541 330.152 59.7718 328.897L61.7106 329.388L63.6494 329.879C63.3363 331.116 63.0303 332.36 62.7317 333.612L60.7862 333.148ZM62.6885 325.639L60.7569 325.12C61.0957 323.858 61.442 322.604 61.7957 321.359L63.7196 321.906L65.6435 322.452C65.2951 323.678 64.954 324.914 64.6202 326.157L62.6885 325.639ZM64.8058 318.187L62.8902 317.612C63.0776 316.988 63.2669 316.366 63.458 315.746L65.3691 316.336L67.2803 316.926C67.0921 317.535 66.9058 318.148 66.7213 318.762L64.8058 318.187ZM65.3691 316.336L63.8362 317.621C63.4086 317.11 62.9837 316.595 62.5615 316.076L64.1133 314.814L65.665 313.553C66.0749 314.057 66.4872 314.556 66.9021 315.051L65.3691 316.336ZM61.6631 311.71L60.0755 312.926C59.2666 311.87 58.4684 310.797 57.6812 309.708L59.3023 308.536L60.9233 307.365C61.6889 308.425 62.4649 309.468 63.2508 310.493L61.6631 311.71ZM57.0295 305.299L55.3773 306.426C54.6283 305.328 53.89 304.215 53.1627 303.086L54.8438 302.003L56.525 300.919C57.2336 302.019 57.9526 303.103 58.6817 304.172L57.0295 305.299ZM52.744 298.651L51.0358 299.691C50.3449 298.557 49.6647 297.408 48.9954 296.245L50.7287 295.248L52.462 294.25C53.115 295.384 53.7784 296.504 54.4521 297.611L52.744 298.651ZM48.7969 291.796L47.0402 292.752C46.4056 291.586 45.7818 290.407 45.1689 289.215L46.9474 288.301L48.726 287.386C49.3248 288.55 49.9341 289.702 50.5537 290.84L48.7969 291.796ZM45.1791 284.763L43.3801 285.637C42.8002 284.444 42.231 283.238 41.6728 282.021L43.4907 281.187L45.3085 280.353C45.8546 281.544 46.4111 282.722 46.978 283.889L45.1791 284.763ZM41.8812 277.575L40.0456 278.369C39.5188 277.152 39.0027 275.923 38.4976 274.684L40.3495 273.929L42.2015 273.174C42.6961 274.387 43.2012 275.589 43.7167 276.781L41.8812 277.575ZM38.8948 270.252L37.0275 270.968C36.5524 269.73 36.0879 268.482 35.6344 267.224L37.5159 266.546L39.3973 265.867C39.8417 267.1 40.2967 268.323 40.762 269.535L38.8948 270.252ZM36.212 262.812L34.3174 263.453C33.8926 262.197 33.4785 260.932 33.0754 259.657L34.9822 259.054L36.889 258.451C37.2843 259.7 37.6903 260.941 38.1066 262.172L36.212 262.812ZM33.8257 255.272L31.9076 255.839C31.5321 254.567 31.1672 253.287 30.8133 251.999L32.7418 251.469L34.6703 250.939C35.0176 252.203 35.3755 253.458 35.7438 254.706L33.8257 255.272ZM31.7297 247.645L29.7916 248.139C29.4642 246.854 29.1475 245.561 28.8418 244.261L30.7886 243.804L32.7355 243.346C33.0357 244.622 33.3465 245.891 33.6678 247.152L31.7297 247.645ZM29.9181 239.945L27.9632 240.367C27.6831 239.071 27.4137 237.768 27.1552 236.458L29.1174 236.071L31.0795 235.683C31.3334 236.97 31.5979 238.25 31.873 239.522L29.9181 239.945ZM28.386 232.183L26.4173 232.535C26.1839 231.231 25.9612 229.92 25.7493 228.603L27.7239 228.285L29.6985 227.968C29.9067 229.262 30.1255 230.549 30.3547 231.83L28.386 232.183ZM27.13 224.377L25.1501 224.66C24.9624 223.348 24.7854 222.03 24.6192 220.707L26.6036 220.458L28.588 220.209C28.7513 221.509 28.9253 222.804 29.1098 224.093L27.13 224.377ZM26.1444 216.53L24.1561 216.745C24.0134 215.427 23.8814 214.104 23.7603 212.776L25.752 212.594L27.7438 212.412C27.8628 213.718 27.9926 215.019 28.1328 216.315L26.1444 216.53ZM25.4259 208.652L23.4314 208.8C23.3332 207.477 23.2457 206.15 23.1691 204.818L25.1658 204.704L27.1625 204.589C27.2378 205.898 27.3238 207.203 27.4204 208.503L25.4259 208.652ZM24.9714 200.754L22.973 200.836C22.9188 199.512 22.8753 198.184 22.8427 196.852L24.8421 196.803L26.8415 196.754C26.8736 198.064 26.9164 199.37 26.9697 200.672L24.9714 200.754ZM24.7776 192.849L22.7777 192.866C22.7723 192.201 22.7695 191.535 22.7695 190.868H24.7695H26.7695C26.7695 191.524 26.7722 192.179 26.7775 192.833L24.7776 192.849ZM24.7695 190.868H22.7695C22.7695 190.197 22.7723 189.528 22.7778 188.859L24.7777 188.875L26.7776 188.892C26.7722 189.549 26.7695 190.208 26.7695 190.868H24.7695ZM24.8428 184.907L22.8434 184.857C22.8763 183.521 22.9201 182.189 22.9747 180.861L24.973 180.943L26.9713 181.025C26.9176 182.331 26.8745 183.641 26.8422 184.956L24.8428 184.907ZM25.169 176.977L23.1723 176.861C23.2494 175.527 23.3374 174.197 23.4362 172.872L25.4307 173.021L27.4251 173.17C27.328 174.472 27.2415 175.78 27.1657 177.092L25.169 176.977ZM25.7593 169.062L23.7676 168.88C23.8894 167.549 24.0222 166.223 24.1657 164.903L26.1539 165.119L28.1422 165.335C28.0012 166.633 27.8707 167.936 27.751 169.245L25.7593 169.062ZM26.6169 161.173L24.6326 160.923C24.7998 159.596 24.9778 158.276 25.1666 156.961L27.1463 157.245L29.126 157.53C28.9405 158.822 28.7655 160.119 28.6012 161.423L26.6169 161.173ZM27.7455 153.317L25.771 152.998C25.9842 151.678 26.2083 150.365 26.4431 149.057L28.4116 149.411L30.3801 149.764C30.1495 151.049 29.9293 152.339 29.7199 153.636L27.7455 153.317ZM29.1488 145.507L27.1869 145.118C27.4469 143.806 27.7178 142.5 27.9995 141.201L29.954 141.625L31.9086 142.049C31.632 143.324 31.366 144.606 31.1107 145.895L29.1488 145.507ZM30.8313 137.752L28.8849 137.292C29.1926 135.989 29.5112 134.693 29.8406 133.405L31.7782 133.901L33.7159 134.396C33.3926 135.66 33.0799 136.932 32.7778 138.211L30.8313 137.752ZM32.7978 130.064L30.8698 129.532C31.2263 128.24 31.5937 126.956 31.9718 125.681L33.8893 126.249L35.8068 126.818C35.4359 128.069 35.0755 129.328 34.7258 130.596L32.7978 130.064ZM35.0535 122.457L33.1474 121.852C33.5538 120.573 33.9711 119.302 34.3993 118.041L36.2931 118.684L38.1869 119.327C37.7673 120.563 37.3581 121.809 36.9597 123.063L35.0535 122.457ZM37.6044 114.945L35.7239 114.265C36.1815 113.001 36.6501 111.746 37.1296 110.502L38.9958 111.221L40.862 111.941C40.3924 113.159 39.9333 114.388 39.485 115.626L37.6044 114.945ZM40.4568 107.545L38.606 106.787C39.1163 105.54 39.6378 104.305 40.17 103.08L42.0043 103.878L43.8385 104.675C43.3176 105.873 42.8073 107.082 42.3076 108.303L40.4568 107.545ZM43.6212 100.265L41.8048 99.4282C42.3684 98.205 42.9431 96.9935 43.5286 95.7941L45.3259 96.6715L47.1232 97.5489C46.5508 98.7213 45.9889 99.9058 45.4377 101.102L43.6212 100.265ZM47.1055 93.129L45.3288 92.2108C45.9462 91.0161 46.5746 89.8343 47.2139 88.6655L48.9686 89.6252L50.7233 90.585C50.0992 91.726 49.4854 92.8802 48.8823 94.0473L47.1055 93.129ZM50.9163 86.1637L49.1853 85.1619C49.8576 84.0003 50.5408 82.8526 51.2348 81.7191L52.9405 82.7635L54.6462 83.8079C53.9695 84.9129 53.3032 86.0322 52.6473 87.1656L50.9163 86.1637ZM55.0619 79.3961L53.3836 78.3083C54.115 77.1799 54.8573 76.0668 55.6104 74.9692L57.2595 76.1008L58.9086 77.2324C58.1756 78.3007 57.4527 79.3846 56.7402 80.4838L55.0619 79.3961ZM59.551 72.8567L57.9333 71.6805C58.7269 70.5891 59.5315 69.5145 60.3469 68.457L61.9307 69.6783L63.5146 70.8996C62.7224 71.9269 61.9403 72.9715 61.1686 74.0328L59.551 72.8567ZM64.3914 66.5808L62.8438 65.314C63.7016 64.2661 64.5705 63.2365 65.4503 62.2259L66.9588 63.539L68.4673 64.8522C67.6144 65.8319 66.7716 66.8306 65.939 67.8477L64.3914 66.5808ZM69.6082 60.5894L68.1416 59.2297C69.0596 58.2396 69.9885 57.2694 70.9281 56.3198L72.3498 57.7266L73.7714 59.1334C72.8627 60.0517 71.9638 60.9904 71.0749 61.9492L69.6082 60.5894ZM75.1932 54.9482L73.8201 53.4941C74.8026 52.5662 75.7961 51.6603 76.8001 50.7768L78.1213 52.2783L79.4425 53.7797C78.4742 54.6318 77.5154 55.5062 76.5664 56.4023L75.1932 54.9482ZM81.1467 49.712L79.8812 48.1633C80.9318 47.3049 81.9932 46.4706 83.065 45.6609L84.2705 47.2568L85.476 48.8526C84.4453 49.6312 83.4239 50.4341 82.4121 51.2608L81.1467 49.712ZM87.4792 44.9305L86.3377 43.2882C87.4509 42.5145 88.5746 41.7668 89.7085 41.0459L90.7815 42.7337L91.8545 44.4214C90.7676 45.1125 89.6895 45.8298 88.6207 46.5727L87.4792 44.9305ZM94.1785 40.674L93.1786 38.942C94.3534 38.2637 95.5384 37.6139 96.7331 36.993L97.6554 38.7676L98.5776 40.5423C97.436 41.1356 96.3028 41.7571 95.1784 42.4061L94.1785 40.674ZM101.213 37.0204L100.373 35.2054C101.607 34.6343 102.85 34.0939 104.103 33.5846L104.856 35.4374L105.609 37.2901C104.416 37.7753 103.23 38.2906 102.053 38.8354L101.213 37.0204ZM108.566 34.033L107.904 32.1458C109.185 31.6965 110.474 31.2796 111.772 30.8958L112.339 32.8137L112.906 34.7316C111.673 35.0964 110.447 35.4927 109.228 35.9202L108.566 34.033ZM116.172 31.7856L115.704 29.8413C117.023 29.5235 118.35 29.2397 119.684 28.9905L120.051 30.9566L120.418 32.9226C119.152 33.159 117.893 33.4283 116.641 33.73L116.172 31.7856ZM123.968 30.331L123.705 28.3484C125.049 28.1699 126.4 28.0264 127.758 27.9186L127.916 29.9123L128.074 31.906C126.787 32.0082 125.506 32.1442 124.232 32.3136L123.968 30.331ZM131.874 29.7031L131.821 27.7037C132.5 27.6858 133.182 27.6768 133.864 27.6768L133.864 29.6768L133.864 31.6768C133.217 31.6768 132.571 31.6853 131.926 31.7024L131.874 29.7031ZM133.864 29.6768V27.6768C134.523 27.6768 135.181 27.6852 135.837 27.7019L135.786 29.7013L135.735 31.7006C135.113 31.6848 134.489 31.6768 133.864 31.6768V29.6768ZM139.62 29.8973L139.774 27.9032C141.087 28.0041 142.395 28.1384 143.696 28.3057L143.441 30.2894L143.186 32.2731C141.953 32.1145 140.713 31.9871 139.467 31.8914L139.62 29.8973ZM147.236 30.8757L147.592 28.9075C148.885 29.1411 150.172 29.4073 151.451 29.7054L150.997 31.6532L150.543 33.601C149.329 33.318 148.108 33.0654 146.881 32.8438L147.236 30.8757ZM154.714 32.6176L155.264 30.6947C156.525 31.0552 157.778 31.447 159.023 31.8693L158.38 33.7633L157.737 35.6572C156.553 35.2555 155.362 34.8831 154.164 34.5405L154.714 32.6176ZM161.986 35.0833L162.718 33.222C163.935 33.7006 165.144 34.2087 166.344 34.7457L165.527 36.5713L164.711 38.3969C163.566 37.8848 162.414 37.4005 161.254 36.9446L161.986 35.0833ZM168.996 38.2179L169.894 36.4307C171.059 37.0164 172.216 37.6295 173.364 38.2695L172.389 40.0162L171.415 41.7628C170.317 41.1505 169.212 40.5645 168.098 40.0051L168.996 38.2179ZM175.704 41.9581L176.751 40.2539C177.86 40.9349 178.959 41.6412 180.048 42.3725L178.934 44.0331L177.819 45.6937C176.774 44.9921 175.72 44.3148 174.658 43.6624L175.704 41.9581ZM182.08 46.2358L183.259 44.6199C184.309 45.3857 185.349 46.1749 186.38 46.9871L185.141 48.5577L183.903 50.1284C182.912 49.3467 181.911 48.5877 180.902 47.8518L182.08 46.2358ZM188.112 50.9885L189.406 49.4636C190.395 50.3027 191.374 51.1635 192.343 52.0453L190.997 53.5244L189.651 55.0035C188.716 54.1524 187.772 53.3223 186.818 52.5135L188.112 50.9885ZM193.795 56.1586L195.19 54.7254C196.118 55.6282 197.035 56.5507 197.943 57.4926L196.502 58.8801L195.062 60.2677C194.184 59.3564 193.297 58.4643 192.4 57.5919L193.795 56.1586ZM199.123 61.6867L200.606 60.3445C201.474 61.3037 202.332 62.281 203.18 63.276L201.658 64.5732L200.135 65.8704C199.313 64.9054 198.481 63.9581 197.64 63.0289L199.123 61.6867ZM204.107 67.5342L205.667 66.2816C206.476 67.2885 207.274 68.312 208.063 69.3516L206.47 70.5602L204.876 71.7689C204.11 70.7585 203.334 69.7643 202.548 68.7868L204.107 67.5342ZM208.748 73.6506L210.374 72.4855C210.751 73.0126 211.127 73.5435 211.499 74.0781L209.858 75.2217L208.218 76.3652C207.855 75.8449 207.49 75.3284 207.122 74.8158L208.748 73.6506ZM209.858 75.2217L209.029 73.4016C209.643 73.1219 210.259 72.8503 210.877 72.5867L211.662 74.4261L212.447 76.2656C211.859 76.5165 211.272 76.7753 210.687 77.0417L209.858 75.2217ZM215.324 72.968L214.63 71.092C215.899 70.623 217.175 70.1877 218.458 69.7869L219.054 71.6958L219.651 73.6047C218.434 73.9849 217.223 74.3981 216.017 74.8439L215.324 72.968ZM222.846 70.6195L222.351 68.6816C223.661 68.3471 224.978 68.0483 226.301 67.786L226.69 69.7479L227.079 71.7097C225.828 71.9578 224.582 72.2404 223.341 72.5573L222.846 70.6195ZM230.576 69.0881L230.296 67.1078C231.633 66.9188 232.976 66.767 234.324 66.653L234.492 68.6458L234.661 70.6387C233.388 70.7465 232.119 70.8898 230.856 71.0685L230.576 69.0881ZM238.428 68.4242L238.371 66.425C239.046 66.406 239.722 66.3965 240.398 66.3965L240.398 68.3965L240.398 70.3965C239.759 70.3965 239.121 70.4055 238.484 70.4234L238.428 68.4242ZM240.398 68.3965V66.3965C241.081 66.3965 241.763 66.4062 242.444 66.4255L242.387 68.4247L242.33 70.4239C241.688 70.4056 241.044 70.3965 240.398 70.3965V68.3965ZM246.342 68.6489L246.512 66.6561C247.868 66.7715 249.218 66.925 250.562 67.1162L250.28 69.0963L249.999 71.0764C248.729 70.8958 247.453 70.7507 246.173 70.6417L246.342 68.6489ZM254.187 69.7634L254.579 67.802C255.908 68.0671 257.231 68.3689 258.547 68.707L258.05 70.6441L257.552 72.5813C256.306 72.2611 255.054 71.9755 253.796 71.7247L254.187 69.7634ZM261.86 71.7316L262.46 69.8236C263.75 70.2291 265.034 70.6694 266.31 71.144L265.613 73.0187L264.916 74.8932C263.703 74.4423 262.484 74.0243 261.26 73.6396L261.86 71.7316ZM269.285 74.4891L270.074 72.6512C271.316 73.1844 272.551 73.7502 273.779 74.3479L272.903 76.1461L272.028 77.9442C270.856 77.3738 269.679 76.8347 268.497 76.327L269.285 74.4891ZM276.412 77.9547L277.368 76.198C278.549 76.8411 279.724 77.5141 280.89 78.2164L279.859 79.9299L278.827 81.6434C277.709 80.9704 276.585 80.3263 275.455 79.7113L276.412 77.9547ZM283.206 82.0405L284.307 80.3709C285.425 81.1082 286.535 81.8726 287.638 82.6636L286.472 84.2888L285.306 85.9139C284.245 85.1528 283.178 84.4181 282.104 83.7101L283.206 82.0405ZM289.651 86.6606L290.877 85.0799C291.931 85.8969 292.977 86.7386 294.016 87.6044L292.736 89.141L291.456 90.6775C290.452 89.8412 289.442 89.029 288.426 88.2413L289.651 86.6606ZM295.746 91.7358L297.077 90.243C298.069 91.1277 299.054 92.0347 300.031 92.9636L298.654 94.4135L297.276 95.8633C296.329 94.963 295.375 94.0846 294.415 93.2286L295.746 91.7358ZM301.495 97.197L302.916 95.7895C303.849 96.7318 304.776 97.6945 305.695 98.677L304.235 100.043L302.774 101.41C301.88 100.454 300.98 99.5193 300.074 98.6045L301.495 97.197ZM306.912 102.985L308.409 101.659C309.288 102.652 310.159 103.662 311.024 104.691L309.493 105.978L307.962 107.264C307.119 106.262 306.27 105.277 305.415 104.311L306.912 102.985ZM312.011 109.052L313.574 107.804C314.401 108.84 315.222 109.892 316.036 110.962L314.444 112.173L312.853 113.384C312.058 112.339 311.256 111.311 310.449 110.3L312.011 109.052ZM316.81 115.357L318.429 114.183C319.209 115.257 319.982 116.348 320.749 117.453L319.105 118.593L317.461 119.732C316.711 118.65 315.955 117.583 315.192 116.532L316.81 115.357ZM321.326 121.869L322.993 120.764C323.729 121.873 324.458 122.998 325.18 124.136L323.492 125.208L321.803 126.279C321.095 125.163 320.38 124.061 319.659 122.974L321.326 121.869ZM325.574 128.56L327.283 127.52C327.977 128.662 328.665 129.817 329.346 130.985L327.618 131.993L325.891 133C325.222 131.853 324.547 130.719 323.865 129.599L325.574 128.56ZM329.57 135.409L331.315 134.432C331.965 135.593 332.608 136.766 333.245 137.951L331.483 138.898L329.722 139.845C329.096 138.679 328.463 137.526 327.825 136.386L329.57 135.409ZM333.327 142.398L335.104 141.481C335.712 142.657 336.313 143.845 336.908 145.045L335.116 145.933L333.325 146.822C332.739 145.642 332.147 144.473 331.55 143.316L333.327 142.398ZM336.857 149.513L338.662 148.652C339.23 149.842 339.791 151.042 340.346 152.252L338.528 153.086L336.711 153.92C336.164 152.728 335.611 151.545 335.052 150.374L336.857 149.513ZM340.163 156.721L341.993 155.914C342.525 157.121 343.052 158.338 343.572 159.564L341.731 160.345L339.889 161.126C339.377 159.917 338.858 158.718 338.333 157.528L340.163 156.721ZM343.254 164.006L345.106 163.251C345.608 164.481 346.104 165.721 346.594 166.97L344.732 167.701L342.87 168.431C342.387 167.199 341.897 165.976 341.402 164.762L343.254 164.006ZM346.149 171.383L348.02 170.677C348.49 171.921 348.953 173.173 349.41 174.434L347.53 175.116L345.65 175.798C345.199 174.553 344.741 173.317 344.278 172.089L346.149 171.383ZM348.856 178.844L350.744 178.185C351.18 179.434 351.609 180.69 352.033 181.955L350.137 182.59L348.24 183.225C347.822 181.977 347.397 180.735 346.967 179.502L348.856 178.844ZM351.381 186.382L353.285 185.769C353.688 187.022 354.085 188.281 354.477 189.548L352.566 190.138L350.655 190.729C350.268 189.477 349.876 188.232 349.477 186.994L351.381 186.382ZM353.715 193.938L355.633 193.37C356.01 194.642 356.381 195.922 356.747 197.209L354.823 197.755L352.899 198.302C352.537 197.03 352.17 195.764 351.798 194.506L353.715 193.938ZM355.88 201.559L357.81 201.034C358.159 202.316 358.502 203.604 358.839 204.898L356.904 205.402L354.968 205.906C354.635 204.626 354.296 203.352 353.951 202.084L355.88 201.559ZM357.882 209.242L359.823 208.759C360.142 210.041 360.455 211.328 360.763 212.622L358.818 213.085L356.872 213.548C356.567 212.268 356.257 210.994 355.941 209.725L357.882 209.242ZM359.719 216.963L361.669 216.52C361.962 217.808 362.248 219.102 362.529 220.401L360.574 220.823L358.619 221.246C358.341 219.96 358.058 218.68 357.768 217.406L359.719 216.963ZM361.392 224.698L363.351 224.295C363.619 225.598 363.881 226.907 364.138 228.221L362.175 228.604L360.212 228.988C359.958 227.687 359.698 226.391 359.433 225.101L361.392 224.698ZM362.913 232.483L364.879 232.119C365.12 233.42 365.356 234.727 365.585 236.038L363.615 236.383L361.645 236.728C361.418 235.43 361.185 234.136 360.946 232.847L362.913 232.483ZM364.284 240.312L366.257 239.986C366.472 241.286 366.681 242.591 366.885 243.9L364.909 244.208L362.932 244.515C362.731 243.218 362.523 241.926 362.311 240.638L364.284 240.312ZM365.499 248.127L367.478 247.838C367.671 249.155 367.857 250.477 368.038 251.803L366.057 252.073L364.075 252.344C363.896 251.03 363.711 249.721 363.52 248.416L365.499 248.127ZM366.572 255.984L368.556 255.732C368.723 257.046 368.884 258.363 369.04 259.685L367.054 259.919L365.067 260.153C364.913 258.844 364.753 257.538 364.588 256.236L366.572 255.984ZM367.502 263.878L369.49 263.662C369.632 264.972 369.769 266.287 369.901 267.605L367.91 267.803L365.92 268.001C365.79 266.695 365.655 265.392 365.513 264.094L367.502 263.878ZM368.286 271.749L370.277 271.568C370.397 272.893 370.512 274.221 370.621 275.553L368.627 275.716L366.634 275.879C366.526 274.559 366.413 273.242 366.294 271.929L368.286 271.749ZM368.931 279.654L370.926 279.508C371.022 280.828 371.113 282.152 371.198 283.479L369.202 283.607L367.206 283.734C367.122 282.419 367.032 281.107 366.937 279.799L368.931 279.654ZM369.439 287.579L371.436 287.468C371.509 288.787 371.577 290.109 371.639 291.434L369.641 291.527L367.643 291.621C367.582 290.307 367.515 288.997 367.442 287.69L369.439 287.579ZM369.809 295.484L371.807 295.408C371.858 296.736 371.903 298.066 371.943 299.4L369.944 299.459L367.944 299.518C367.905 298.196 367.861 296.877 367.81 295.561L369.809 295.484ZM370.044 303.416L372.043 303.374C372.071 304.696 372.094 306.021 372.111 307.349L370.111 307.374L368.111 307.399C368.094 306.083 368.072 304.769 368.044 303.458L370.044 303.416ZM370.144 311.347L372.144 311.339C372.147 312.005 372.148 312.672 372.148 313.34H370.148H368.148C368.148 312.678 368.147 312.016 368.144 311.356L370.144 311.347ZM370.148 313.34H372.148C372.148 314.007 372.147 314.674 372.144 315.341L370.144 315.332L368.144 315.324C368.147 314.663 368.148 314.002 368.148 313.34H370.148ZM370.111 319.306L372.111 319.331C372.094 320.658 372.071 321.983 372.043 323.305L370.044 323.263L368.044 323.221C368.072 321.91 368.094 320.596 368.111 319.28L370.111 319.306ZM369.944 327.221L371.943 327.28C371.903 328.613 371.858 329.944 371.808 331.271L369.809 331.195L367.81 331.119C367.861 329.803 367.905 328.484 367.944 327.162L369.944 327.221ZM369.641 335.152L371.639 335.246C371.577 336.57 371.509 337.892 371.436 339.211L369.439 339.101L367.443 338.99C367.515 337.683 367.582 336.372 367.643 335.059L369.641 335.152ZM369.202 343.073L371.198 343.201C371.113 344.528 371.022 345.851 370.926 347.171L368.931 347.026L366.937 346.881C367.032 345.572 367.122 344.26 367.206 342.945L369.202 343.073ZM368.627 350.964L370.621 351.126C370.512 352.458 370.397 353.787 370.277 355.111L368.286 354.931L366.294 354.751C366.413 353.438 366.526 352.121 366.634 350.801L368.627 350.964ZM367.91 358.877L369.901 359.075C369.769 360.393 369.632 361.707 369.49 363.018L367.502 362.802L365.514 362.586C365.655 361.287 365.79 359.985 365.92 358.679L367.91 358.877ZM367.054 366.761L369.04 366.995C368.884 368.316 368.723 369.634 368.556 370.948L366.572 370.695L364.588 370.443C364.753 369.142 364.913 367.836 365.067 366.527L367.054 366.761ZM366.057 374.606L368.038 374.877C367.857 376.203 367.671 377.524 367.479 378.841L365.499 378.553L363.52 378.264C363.711 376.959 363.896 375.65 364.075 374.336L366.057 374.606ZM364.909 382.472L366.885 382.78C366.681 384.089 366.472 385.394 366.257 386.694L364.284 386.368L362.311 386.042C362.523 384.754 362.731 383.462 362.932 382.165L364.909 382.472ZM363.615 390.297L365.585 390.642C365.356 391.953 365.12 393.259 364.879 394.561L362.913 394.197L360.946 393.832C361.185 392.544 361.418 391.25 361.645 389.952L363.615 390.297ZM362.175 398.075L364.138 398.459C363.881 399.773 363.619 401.082 363.351 402.385L361.392 401.982L359.433 401.579C359.698 400.289 359.958 398.993 360.212 397.692L362.175 398.075ZM360.574 405.856L362.529 406.279C362.248 407.578 361.962 408.871 361.669 410.159L359.719 409.717L357.768 409.274C358.058 408 358.341 406.719 358.619 405.434L360.574 405.856ZM358.818 413.595L360.763 414.058C360.455 415.352 360.142 416.639 359.823 417.921L357.882 417.438L355.941 416.954C356.257 415.686 356.567 414.412 356.872 413.132L358.818 413.595ZM356.904 421.278L358.839 421.782C358.502 423.076 358.159 424.364 357.81 425.646L355.88 425.121L353.951 424.596C354.296 423.328 354.635 422.054 354.968 420.774L356.904 421.278ZM354.823 428.925L356.747 429.471C356.381 430.758 356.01 432.037 355.633 433.31L353.715 432.742L351.798 432.174C352.17 430.916 352.538 429.65 352.899 428.378L354.823 428.925ZM352.566 436.542L354.477 437.132C354.085 438.399 353.688 439.658 353.285 440.911L351.381 440.298L349.477 439.686C349.876 438.448 350.268 437.203 350.655 435.951L352.566 436.542ZM350.137 444.09L352.033 444.725C351.609 445.99 351.18 447.246 350.744 448.495L348.856 447.836L346.967 447.178C347.397 445.945 347.822 444.704 348.24 443.455L350.137 444.09ZM347.53 451.564L349.41 452.246C348.953 453.507 348.49 454.759 348.02 456.003L346.149 455.297L344.278 454.591C344.741 453.363 345.199 452.127 345.65 450.882L347.53 451.564ZM344.732 458.979L346.594 459.71C346.104 460.959 345.608 462.199 345.106 463.43L343.254 462.674L341.402 461.918C341.897 460.704 342.387 459.481 342.87 458.249L344.732 458.979ZM341.731 466.335L343.572 467.116C343.052 468.342 342.525 469.559 341.993 470.766L340.163 469.959L338.333 469.152C338.858 467.963 339.377 466.763 339.89 465.554L341.731 466.335ZM338.528 473.594L340.346 474.428C339.791 475.638 339.23 476.838 338.663 478.028L336.857 477.167L335.052 476.306C335.611 475.135 336.164 473.953 336.711 472.76L338.528 473.594ZM335.116 480.747L336.908 481.636C336.313 482.835 335.712 484.023 335.104 485.2L333.327 484.282L331.55 483.365C332.147 482.207 332.739 481.038 333.325 479.858L335.116 480.747ZM331.483 487.782L333.245 488.729C332.608 489.914 331.965 491.087 331.315 492.248L329.57 491.271L327.825 490.295C328.463 489.154 329.096 488.001 329.722 486.836L331.483 487.782ZM327.618 494.688L329.346 495.695C328.665 496.863 327.977 498.018 327.283 499.16L325.574 498.12L323.865 497.081C324.547 495.961 325.222 494.827 325.891 493.68L327.618 494.688ZM323.492 501.473L325.18 502.544C324.458 503.683 323.729 504.807 322.993 505.917L321.326 504.811L319.659 503.706C320.38 502.619 321.095 501.517 321.803 500.401L323.492 501.473ZM319.105 508.088L320.749 509.227C319.982 510.333 319.209 511.423 318.429 512.498L316.811 511.323L315.192 510.148C315.955 509.097 316.711 508.03 317.462 506.948L319.105 508.088ZM314.444 514.507L316.036 515.718C315.222 516.788 314.402 517.841 313.574 518.876L312.011 517.628L310.449 516.38C311.256 515.369 312.058 514.341 312.853 513.296L314.444 514.507ZM309.493 520.703L311.024 521.989C310.159 523.018 309.288 524.029 308.409 525.021L306.912 523.695L305.415 522.369C306.27 521.403 307.119 520.419 307.962 519.416L309.493 520.703ZM304.235 526.637L305.695 528.003C304.776 528.986 303.85 529.949 302.916 530.891L301.495 529.483L300.074 528.076C300.981 527.161 301.881 526.226 302.774 525.271L304.235 526.637ZM298.654 532.267L300.031 533.717C299.054 534.646 298.069 535.553 297.077 536.437L295.746 534.945L294.415 533.452C295.375 532.596 296.329 531.717 297.276 530.817L298.654 532.267ZM292.736 537.539L294.017 539.076C292.977 539.942 291.931 540.784 290.877 541.601L289.651 540.02L288.426 538.439C289.442 537.651 290.452 536.839 291.456 536.003L292.736 537.539ZM286.472 542.392L287.638 544.017C286.535 544.808 285.425 545.572 284.307 546.31L283.206 544.64L282.105 542.97C283.178 542.262 284.245 541.528 285.307 540.767L286.472 542.392ZM279.859 546.751L280.89 548.464C279.724 549.166 278.549 549.839 277.368 550.483L276.412 548.726L275.456 546.969C276.585 546.354 277.709 545.71 278.827 545.037L279.859 546.751ZM272.903 550.535L273.779 552.333C272.551 552.93 271.317 553.496 270.074 554.029L269.285 552.191L268.497 550.354C269.679 549.846 270.856 549.307 272.028 548.736L272.903 550.535ZM265.613 553.662L266.31 555.537C265.034 556.011 263.75 556.452 262.46 556.857L261.86 554.949L261.26 553.041C262.484 552.656 263.703 552.238 264.916 551.787L265.613 553.662ZM258.05 556.037L258.547 557.974C257.231 558.312 255.908 558.614 254.579 558.879L254.187 556.917L253.796 554.956C255.054 554.705 256.306 554.42 257.552 554.099L258.05 556.037ZM250.28 557.584L250.562 559.564C249.218 559.756 247.867 559.909 246.512 560.025L246.342 558.032L246.173 556.039C247.453 555.93 248.729 555.785 249.999 555.604L250.28 557.584ZM242.387 558.256L242.444 560.255C241.763 560.274 241.081 560.284 240.398 560.284V558.284V556.284C241.044 556.284 241.688 556.275 242.33 556.257L242.387 558.256ZM240.398 558.284L240.398 560.284C239.652 560.284 238.907 560.273 238.163 560.25L238.225 558.25L238.287 556.251C238.99 556.273 239.693 556.284 240.398 556.284L240.398 558.284ZM233.887 557.981L233.701 559.972C232.216 559.834 230.737 559.649 229.266 559.42L229.574 557.444L229.882 555.468C231.273 555.684 232.67 555.859 234.073 555.99L233.887 557.981ZM225.302 556.644L224.874 558.597C223.423 558.28 221.979 557.918 220.543 557.514L221.085 555.589L221.628 553.664C222.989 554.047 224.356 554.389 225.729 554.69L225.302 556.644ZM216.938 554.29L216.286 556.18C214.887 555.698 213.496 555.175 212.114 554.611L212.87 552.759L213.625 550.907C214.94 551.443 216.261 551.941 217.59 552.399L216.938 554.29ZM208.89 551.011L208.038 552.82C207.369 552.505 206.702 552.181 206.038 551.847L206.936 550.06L207.834 548.273C208.468 548.591 209.104 548.901 209.742 549.201L208.89 551.011ZM206.936 550.06L208.604 551.162C208.218 551.747 207.829 552.326 207.438 552.9L205.786 551.773L204.133 550.647C204.513 550.089 204.891 549.526 205.267 548.957L206.936 550.06ZM203.413 555.144L205.031 556.32C204.203 557.459 203.364 558.574 202.516 559.665L200.937 558.437L199.359 557.21C200.18 556.153 200.992 555.073 201.796 553.968L203.413 555.144ZM198.351 561.648L199.887 562.93C198.983 564.013 198.068 565.069 197.143 566.098L195.656 564.76L194.169 563.423C195.06 562.432 195.942 561.413 196.816 560.367L198.351 561.648ZM192.838 567.773L194.271 569.168C193.283 570.183 192.283 571.167 191.274 572.119L189.901 570.664L188.529 569.209C189.497 568.297 190.455 567.353 191.405 566.378L192.838 567.773ZM186.842 573.421L188.146 574.937C187.068 575.864 185.979 576.756 184.878 577.611L183.651 576.032L182.424 574.453C183.471 573.639 184.509 572.789 185.538 571.905L186.842 573.421ZM180.331 578.475L181.472 580.117C180.302 580.93 179.12 581.703 177.927 582.434L176.882 580.729L175.837 579.024C176.963 578.334 178.081 577.603 179.19 576.832L180.331 578.475ZM173.305 582.774L174.242 584.54C172.981 585.21 171.708 585.834 170.424 586.41L169.604 584.586L168.785 582.761C169.987 582.222 171.181 581.637 172.367 581.007L173.305 582.774ZM165.789 586.141L166.478 588.019C165.136 588.512 163.783 588.953 162.42 589.341L161.872 587.418L161.323 585.494C162.59 585.134 163.849 584.723 165.1 584.264L165.789 586.141ZM157.869 588.394L158.267 590.354C156.868 590.639 155.46 590.867 154.043 591.04L153.801 589.054L153.56 587.069C154.871 586.909 156.174 586.698 157.47 586.434L157.869 588.394ZM149.694 589.386L149.775 591.385C149.063 591.413 148.349 591.428 147.634 591.428V589.428V587.428C148.295 587.428 148.955 587.414 149.614 587.388L149.694 589.386Z" fill="#E96600" mask="url(#path-2-inside-1_500_1117)"/>
<defs>
<filter id="filter0_d_500_1117" x="-1" y="0" width="396.999" height="623" filterUnits="userSpaceOnUse" color-interpolation-filters="sRGB">
<feFlood flood-opacity="0" result="BackgroundImageFix"/>
<feColorMatrix in="SourceAlpha" type="matrix" values="0 0 0 0 0 0 0 0 0 0 0 0 0 0 0 0 0 0 127 0" result="hardAlpha"/>
<feMorphology radius="2" operator="dilate" in="SourceAlpha" result="effect1_dropShadow_500_1117"/>
<feOffset/>
<feGaussianBlur stdDeviation="5"/>
<feComposite in2="hardAlpha" operator="out"/>
<feColorMatrix type="matrix" values="0 0 0 0 0.326923 0 0 0 0 0.326923 0 0 0 0 0.326923 0 0 0 0.25 0"/>
<feBlend mode="normal" in2="BackgroundImageFix" result="effect1_dropShadow_500_1117"/>
<feBlend mode="normal" in="SourceGraphic" in2="effect1_dropShadow_500_1117" result="shape"/>
</filter>
</defs>
</svg>
