<svg width="353" height="715" viewBox="0 0 353 715" fill="none" xmlns="http://www.w3.org/2000/svg">
<path d="M176.493 0C273.755 0 352.6 78.2693 352.601 174.819C352.601 206.765 343.966 236.708 328.892 262.479C343.729 288.054 352.215 317.708 352.215 349.325C352.215 384.383 341.779 417.025 323.821 444.372C342.016 471.888 352.601 504.807 352.601 540.181C352.601 636.731 273.755 715 176.493 715C79.2318 715 0.385817 636.731 0.385742 540.181C0.385742 505.059 10.8212 472.357 28.7793 444.961C10.5842 417.495 4.26982e-05 384.635 0 349.325C0 317.436 8.63396 287.546 23.709 261.822C8.87127 236.201 0.385742 206.494 0.385742 174.819C0.386 78.2693 79.2318 6.56351e-05 176.493 0Z" fill="white"/>
</svg>
