<svg width="1439" height="527" viewBox="0 0 1439 527" fill="none" xmlns="http://www.w3.org/2000/svg">
<path d="M1337 0C1393.89 0 1440 34.4741 1440 77C1440 77.2761 1440 77.5518 1439.99 77.8271H1440V449.997H1439.99C1439.4 492.142 1393.52 526.17 1337 526.17C1280.48 526.17 1234.6 492.142 1234.01 449.997H1233.99C1233.4 492.142 1187.74 526.17 1131.5 526.17C1075.26 526.17 1029.6 492.142 1029.01 449.997H1028.99C1028.4 492.142 982.516 526.17 926 526.17C869.484 526.17 823.601 492.142 823.007 449.997H822.993C822.399 492.142 776.516 526.17 720 526.17C663.484 526.17 617.601 492.142 617.007 449.997H616.993C616.399 492.142 570.516 526.17 514 526.17C457.484 526.17 411.601 492.142 411.007 449.997H410.993C410.402 492.142 364.741 526.17 308.5 526.17C252.259 526.17 206.598 492.142 206.007 449.997H205.993C205.399 492.142 159.516 526.17 103 526.17C46.4842 526.17 0.600537 492.142 0.00683594 449.997H0V77.8271H0.00683594C0.00295893 77.5518 0 77.2761 0 77C0 34.4741 46.1147 0 103 0C159.885 0 206 34.4741 206 77C206 77.2761 205.997 77.5518 205.993 77.8271H206.007C206.003 77.5518 206 77.2761 206 77C206 34.4741 251.891 0 308.5 0C365.109 0 411 34.4741 411 77C411 77.2761 410.997 77.5518 410.993 77.8271H411.007C411.003 77.5518 411 77.2761 411 77C411 34.4741 457.115 0 514 0C570.885 0 617 34.4741 617 77C617 77.2761 616.997 77.5518 616.993 77.8271H617.007C617.003 77.5518 617 77.2761 617 77C617 34.4741 663.115 0 720 0C776.885 0 823 34.4741 823 77C823 77.2761 822.997 77.5518 822.993 77.8271H823.007C823.003 77.5518 823 77.2761 823 77C823 34.4741 869.115 0 926 0C982.885 0 1029 34.4741 1029 77C1029 77.2761 1029 77.5518 1028.99 77.8271H1029.01C1029 77.5518 1029 77.2761 1029 77C1029 34.4741 1074.89 0 1131.5 0C1188.11 0 1234 34.4741 1234 77C1234 77.2761 1234 77.5518 1233.99 77.8271H1234.01C1234 77.5518 1234 77.2761 1234 77C1234 34.4741 1280.11 0 1337 0Z" fill="white"/>
</svg>
