<svg width="16" height="16" viewBox="0 0 16 16" fill="none" xmlns="http://www.w3.org/2000/svg">
<path d="M4.13507 9.962L2.52107 11.505L2.51307 11.513C2.34347 11.6738 2.2078 11.867 2.11407 12.0811C2.02034 12.2952 1.97045 12.5259 1.96735 12.7596C1.96424 12.9933 2.00798 13.2253 2.09599 13.4418C2.184 13.6583 2.31449 13.855 2.47976 14.0203C2.64503 14.1856 2.84173 14.3161 3.05825 14.4041C3.27478 14.4921 3.50674 14.5358 3.74045 14.5327C3.97415 14.5296 4.20487 14.4797 4.41898 14.386C4.63309 14.2923 4.82625 14.1566 4.98707 13.987L4.99507 13.979L7.19607 11.676L5.67307 10.002H4.62007C4.45726 10.0019 4.29472 9.9885 4.13407 9.962M11.2181 7.736C11.409 7.66343 11.6053 7.6056 11.8051 7.563C12.8651 7.333 13.9951 6.743 14.6171 6.121C14.8993 5.84323 15.1238 5.51232 15.2776 5.14736C15.4313 4.78239 15.5113 4.39061 15.5128 3.99459C15.5144 3.59857 15.4375 3.20616 15.2867 2.83999C15.1358 2.47383 14.914 2.14115 14.6339 1.86116C14.3539 1.58116 14.0211 1.35938 13.6549 1.20862C13.2887 1.05786 12.8963 0.981094 12.5003 0.982753C12.1043 0.984412 11.7125 1.06446 11.3476 1.21829C10.9826 1.37211 10.6518 1.59667 10.3741 1.879C9.92407 2.329 9.49007 3.048 9.19707 3.813C9.39554 4.2212 9.4988 4.66911 9.49907 5.123V6.171L11.2181 7.736ZM11.0001 3.75C11.1327 3.75 11.2599 3.80268 11.3536 3.89645C11.4474 3.99022 11.5001 4.11739 11.5001 4.25C11.5001 4.664 11.8361 5 12.2501 5C12.3827 5 12.5099 5.05268 12.6036 5.14645C12.6974 5.24022 12.7501 5.36739 12.7501 5.5C12.7501 5.63261 12.6974 5.75979 12.6036 5.85356C12.5099 5.94732 12.3827 6 12.2501 6C11.7859 6 11.3408 5.81563 11.0126 5.48744C10.6844 5.15925 10.5001 4.71413 10.5001 4.25C10.5001 4.11739 10.5528 3.99022 10.6465 3.89645C10.7403 3.80268 10.8675 3.75 11.0001 3.75ZM2.96407 1.588C3.1498 1.4022 3.37032 1.25481 3.61302 1.15425C3.85572 1.05369 4.11586 1.00193 4.37857 1.00193C4.64128 1.00193 4.90142 1.05369 5.14413 1.15425C5.38683 1.25481 5.60735 1.4022 5.79307 1.588L7.91407 3.708C8.10004 3.89391 8.24752 4.11468 8.34808 4.35765C8.44863 4.60062 8.50028 4.86104 8.50007 5.124V6.393C8.49998 6.46263 8.51444 6.5315 8.54251 6.59521C8.57057 6.65893 8.61164 6.71608 8.66307 6.763L13.4061 11.079L13.4141 11.087C13.6051 11.2715 13.7575 11.4922 13.8623 11.7362C13.9671 11.9802 14.0223 12.2426 14.0246 12.5082C14.0269 12.7738 13.9763 13.0371 13.8757 13.2829C13.7752 13.5287 13.6266 13.752 13.4389 13.9398C13.2511 14.1276 13.0278 14.2761 12.782 14.3766C12.5362 14.4772 12.2728 14.5278 12.0073 14.5255C11.7417 14.5232 11.4793 14.468 11.2353 14.3632C10.9913 14.2584 10.7706 14.106 10.5861 13.915L10.5781 13.907L6.26407 9.167C6.21724 9.11539 6.16013 9.07414 6.09641 9.04589C6.03269 9.01765 5.96377 9.00304 5.89407 9.003H4.62007C4.08968 9.00289 3.58106 8.7921 3.20607 8.417L1.08607 6.295C0.90027 6.10927 0.752879 5.88876 0.652318 5.64606C0.551758 5.40335 0.5 5.14321 0.5 4.8805C0.5 4.61779 0.551758 4.35765 0.652318 4.11495C0.752879 3.87224 0.90027 3.65173 1.08607 3.466L2.96407 1.588ZM3.35407 4.646C3.26019 4.55212 3.13285 4.49937 3.00007 4.49937C2.8673 4.49937 2.73996 4.55212 2.64607 4.646C2.55219 4.73989 2.49944 4.86723 2.49944 5C2.49944 5.13278 2.55219 5.26012 2.64607 5.354L4.14607 6.854C4.19256 6.90049 4.24775 6.93737 4.30849 6.96253C4.36923 6.98768 4.43433 7.00063 4.50007 7.00063C4.56582 7.00063 4.63092 6.98768 4.69166 6.96253C4.7524 6.93737 4.80759 6.90049 4.85407 6.854C4.90056 6.80751 4.93744 6.75233 4.9626 6.69159C4.98776 6.63085 5.0007 6.56575 5.0007 6.5C5.0007 6.43426 4.98776 6.36916 4.9626 6.30842C4.93744 6.24768 4.90056 6.19249 4.85407 6.146L3.35407 4.646ZM4.14607 3.146C4.09951 3.19245 4.06257 3.24762 4.03736 3.30837C4.01215 3.36911 3.99918 3.43424 3.99918 3.5C3.99918 3.56577 4.01215 3.63089 4.03736 3.69164C4.06257 3.75238 4.09951 3.80756 4.14607 3.854L5.64607 5.354C5.73996 5.44789 5.8673 5.50063 6.00007 5.50063C6.13285 5.50063 6.26019 5.44789 6.35407 5.354C6.44796 5.26012 6.5007 5.13278 6.5007 5C6.5007 4.86723 6.44796 4.73989 6.35407 4.646L4.85407 3.146C4.80763 3.09944 4.75245 3.0625 4.69171 3.03729C4.63096 3.01208 4.56584 2.99911 4.50007 2.99911C4.43431 2.99911 4.36918 3.01208 4.30844 3.03729C4.24769 3.0625 4.19252 3.09944 4.14607 3.146Z" fill="#E96600"/>
</svg>
