<svg width="36" height="36" viewBox="0 0 36 36" fill="none" xmlns="http://www.w3.org/2000/svg">
<path fill-rule="evenodd" clip-rule="evenodd" d="M20.6085 17.955L11.5575 29.367C11.2505 29.7546 10.865 30.0729 10.4263 30.3009C9.98756 30.5289 9.50557 30.6615 9.01195 30.6901C8.51834 30.7186 8.02427 30.6424 7.5622 30.4665C7.10012 30.2905 6.6805 30.0188 6.33088 29.6692C5.98125 29.3196 5.70955 28.8999 5.5336 28.4379C5.35765 27.9758 5.28145 27.4817 5.30998 26.9881C5.33852 26.4945 5.47115 26.0125 5.69917 25.5738C5.9272 25.1351 6.24545 24.7495 6.63303 24.4425L18.045 15.3915C17.1885 13.431 17.073 10.4415 19.59 7.92303C21.114 6.40053 22.977 5.45253 24.75 5.12853C26.475 4.81353 28.389 5.05503 29.667 6.33303C30.945 7.60953 31.1865 9.52503 30.8715 11.2485C30.5475 13.0215 29.5995 14.886 28.0755 16.4085C25.557 18.9285 22.569 18.8115 20.6085 17.955Z" fill="#E96600"/>
</svg>
