<svg width="166" height="63" viewBox="0 0 166 63" fill="none" xmlns="http://www.w3.org/2000/svg">
<path d="M165.396 17.3148C165.396 37.0333 145.153 62.1425 96.1612 62.1425C47.1696 62.1425 1.396 51.3146 1.396 31.5962C1.396 11.8777 31.159 1.44604 80.1506 1.44604C129.142 1.44604 165.396 -2.4037 165.396 17.3148Z" fill="#E96600"/>
<path d="M27.2322 5.96118C42.293 1.5384 59.4358 0.225282 74.9812 0.0161021C76.8996 -0.00408041 76.7557 0.102222 77.2936 0.109856C78.4879 0.130034 79.3022 0.0542991 80.1506 0.0307838C80.3391 0.0255617 80.5289 0.0228236 80.7248 0.0243019C85.8803 0.0628203 90.7348 0.0371991 95.8054 0.0185816C101.017 -0.00242627 98.5689 0.338694 100.381 0.393539C103.91 0.500449 100.902 0.128263 102.293 0.0198444C106.37 -0.00438499 110.487 -0.00799298 114.555 0.0177643C113.551 0.0605701 112.578 0.104122 111.563 0.147273C113.349 0.141534 115.858 0.192741 112.909 0.315882C113.565 0.341063 114.165 0.372118 114.855 0.39784C115.056 0.246663 118.17 0.228421 118.476 0.142497C118.761 0.0541402 116.993 0.0743512 117.007 0.0672032C117.1 -0.0537001 124.418 0.131692 124.913 0.167127C126.3 0.221978 125.079 0.385833 126.268 0.39515C128.307 0.418274 126.936 0.00661504 129.688 0.582245C130.793 0.455385 130.876 0.541026 132.253 0.607312C132.438 0.616399 132.299 0.516709 132.38 0.517659C134.499 0.541727 132.866 0.643492 132.877 0.653411C133.078 0.820037 135.279 0.859068 135.779 0.908102C141.709 1.5021 146.065 1.96922 152.159 3.53672C153.457 3.82424 157.425 5.17982 158.56 5.92404C159.666 6.5709 159.02 6.34168 159.574 6.74053C160.609 7.10298 161.642 7.62573 163.112 9.64764C163.826 10.2715 163.701 10.2291 164.557 11.7883C165.286 13.0749 166.056 15.6462 165.793 17.3148C165.742 15.4198 165.705 15.6116 165.164 13.6011C165.075 13.2624 164.447 11.3375 163.271 9.91015C162.141 8.46119 160.725 7.53881 160.883 7.77687C161.07 7.99064 162.816 9.56529 162.816 9.68351C163.053 10.1658 162.161 9.22921 161.321 8.44881C161.546 8.61446 161.819 8.83804 162.053 9.04335C160.236 7.18521 161.24 8.77897 159.956 7.21599C159.787 7.03105 159.903 7.03037 159.591 6.75649C159.507 6.7337 159.894 7.05683 159.524 6.83595C159.141 6.60298 158.487 6.10037 158.326 6.13669C158.099 6.16975 159.688 7.0115 159.786 7.11462C159.787 7.11465 159.789 7.11467 159.791 7.1147C160.743 7.84039 158.631 6.46946 158.52 6.47087C157.801 6.19577 158.244 6.49344 157.159 6.05553C156.584 5.81885 155.008 5.17015 154.435 5.00356C153.85 4.82148 154.729 5.19442 154.335 5.07695C153.949 4.96171 153.438 4.74248 152.994 4.63107C152.797 4.58147 152.784 4.66142 152.688 4.63684C151.65 4.38025 152.377 4.40413 151.413 4.16482C150.809 4.00854 148.696 3.71537 150.12 4.07184C149.432 3.93463 148.736 3.80629 148.065 3.69496C148.492 3.79814 148.918 3.89797 149.349 4.01642C148.058 3.71257 147.475 3.75551 146.637 3.62637C145.82 3.50417 145.134 3.23711 144.2 3.19495C142.24 3.10631 147.013 3.66411 147.607 3.84066C147.834 3.89252 146.933 3.86498 146.793 3.84709C146.166 3.75916 145.509 3.56765 145.034 3.50491C143.324 3.28321 142.342 3.29568 140.714 3.16003C135.28 2.7087 128.433 2.58062 123.217 2.55677C121.244 2.54624 120.113 2.40759 119.227 2.40892C117.148 2.41492 116.948 2.53526 115.147 2.54743C112.489 2.56645 108.762 2.49761 106.522 2.5003C104.993 2.50164 103.608 2.63336 103.203 2.64095C97.6496 2.74984 90.883 2.82818 86.2796 2.85313C84.0913 2.86614 83.0879 2.73834 82.635 2.74353C80.9485 2.76127 81.1334 2.84699 80.1506 2.8612C80.0114 2.86315 79.8488 2.86372 79.6543 2.86262C78.8086 2.85821 78.6523 2.75358 78.5393 2.74979C77.5485 2.72006 77.3542 2.86078 76.5884 2.87301C72.1397 2.94787 67.9132 2.98724 63.5129 3.2187C63.1983 3.23534 63.2228 3.1725 63.0197 3.18735C62.1395 3.25433 62.5502 3.32623 61.6231 3.39114C59.7041 3.52811 57.7318 3.65974 55.7096 3.82796C55.5103 3.84464 55.4132 3.77379 54.9597 3.81569C54.5019 3.85839 54.1484 3.96674 53.4244 4.03485C51.5478 4.21228 49.6559 4.33712 47.6888 4.58936C47.3695 4.63044 46.9617 4.7806 46.466 4.84801C44.9136 5.05575 42.6183 5.32554 41.3051 5.55142C36.9571 6.29124 32.9944 7.21183 29.0219 8.33944C28.1097 8.5985 27.2346 8.77389 26.7564 8.92188C25.6756 9.26059 26.5094 9.07893 25.4323 9.43239C16.6961 12.4006 7.3444 16.8889 3.82493 25.4098C3.09174 27.2333 2.68238 29.4277 2.71193 31.5962C2.72336 33.2609 3.12122 34.8361 3.70664 36.1891C4.26868 37.4322 4.34542 37.7279 4.88235 38.548C5.94294 40.0209 6.27727 40.168 7.63373 41.4923C8.76389 42.5586 10.0621 43.7606 11.423 44.6667C12.7885 45.5642 13.5325 45.8493 15.1633 46.7271C16.546 47.4685 18.4848 48.4722 20.039 49.1258C34.5676 55.0828 50.131 57.5286 65.9327 59.2907C71.5236 59.8859 77.7508 60.2851 83.5573 60.6474C84.1019 60.681 83.2613 60.79 85.0128 60.823C85.955 60.8388 87.2746 60.7639 89.446 60.8031C91.6665 60.8424 93.8967 60.8679 96.1612 60.876C107.038 60.9212 118.363 59.8063 128.667 56.4384C147.347 50.7956 163.295 34.8193 164.67 17.7678C164.748 16.9524 165.094 17.3902 165.184 17.8939C165.104 18.3556 165.002 18.7846 164.89 19.2619C165.265 19.8929 165.222 19.8013 164.857 22.0419C164.597 23.4249 164.972 22.3501 164.888 23.0998C164.861 24.0793 163.704 28.5527 163.68 27.607C163.636 27.8911 163.592 28.1549 163.542 28.4338C162.428 31.5796 160.954 34.4798 159.161 37.2128C158.851 37.682 158.909 37.7555 158.574 38.2389C157.674 39.5218 156.833 40.4596 155.767 41.6627C155.174 42.3204 155.173 42.4793 154.365 43.2964C153.541 44.1082 153.47 43.9942 152.423 45.1646C153.318 44.6203 149.79 47.5645 148.471 48.4799C148.286 48.6274 146.808 49.8827 145.932 50.4251C145.041 50.9913 143.693 51.7144 142.318 52.5515C141.687 52.9353 141.349 53.2597 140.632 53.6432C140.119 53.9159 139.475 54.1194 138.83 54.4269C138.19 54.7377 136.795 55.4699 136.546 55.5767C135.614 55.9892 136.616 55.4704 135.974 55.7439C132.856 57.0753 129.116 58.3156 125.934 59.2417C125.539 59.3571 126.111 59.2931 126.06 59.3104C123.379 60.1501 124.793 59.6421 124.05 59.7534C123.352 59.8919 118.163 61.0414 118.138 61.1728C117.939 61.0108 116.794 61.3688 116.502 61.4221C115.337 61.6384 115.541 61.4328 114.4 61.6596C113.979 61.7414 114.821 61.7331 114.365 61.7974C113.217 61.9576 112.232 61.9051 110.729 62.0603C110.367 62.0969 110.259 62.193 109.609 62.2588C108.964 62.3317 106.289 62.4605 107.538 62.5275C105.902 62.524 105.536 62.6296 103.668 62.7348C103.189 62.7598 102.566 62.6603 101.532 62.7423C101.181 62.7696 101.195 62.898 100.666 62.9167C99.4914 62.9566 98.3712 62.8489 96.8379 62.8518C96.614 62.8521 96.3884 62.8524 96.1612 62.8528C93.5263 62.8573 90.7585 62.9016 88.0439 62.8039C87.2442 62.7744 87.4521 62.6518 86.2837 62.6152C86.1121 62.6106 84.7044 62.6775 83.9021 62.636C83.4219 62.6144 80.9135 62.4284 80.4085 62.3949C79.5732 62.3439 79.4183 62.4602 78.9627 62.4118C77.6456 62.2695 78.7222 62.1464 77.1085 62.3049C76.5912 62.1352 75.6599 62.0906 75.3738 61.8999C74.8192 62.052 74.1391 61.8262 73.0811 61.8126C72.0227 61.7989 71.1342 62.0929 70.9117 61.6822C70.4194 61.6926 68.3303 61.5952 67.9728 61.5668C66.932 61.4884 67.4973 61.4317 66.7139 61.3727C66.5763 61.3618 66.7123 61.4503 65.8323 61.357C65.2686 61.3059 60.9965 60.8366 60.7612 60.79C57.8776 60.328 62.3389 60.9067 62.9706 60.886C63.0787 60.919 63.1857 60.9519 63.3016 60.9853C64.5801 61.1568 63.8668 60.913 63.2909 60.812C62.7145 60.7113 61.6279 60.664 61.1572 60.5534C60.9227 60.4981 61.0924 60.3168 61.8102 60.4232C61.0463 60.2736 62.1065 60.3292 61.8082 60.2366C61.4901 60.1427 57.9989 59.6954 57.9735 59.7979C58.6195 59.8855 59.429 59.9829 60.0894 60.0671C60.9308 60.3606 58.2238 60.705 55.8728 60.1129C54.1602 59.6784 57.0323 59.9455 52.9229 59.5033C53.5467 59.6054 54.0757 59.7012 54.648 59.7915C54.6882 59.9431 53.7813 59.6521 53.2994 59.6258C53.0667 59.6141 54.464 59.9246 53.233 59.7761C52.2235 59.4154 51.3469 59.4927 49.584 59.2025C50.0803 59.2481 50.5792 59.2926 51.0796 59.3353C48.1057 58.703 55.0724 59.781 49.2676 58.7515C49.9632 58.8622 50.6585 58.9778 51.3675 59.08C51.0368 58.9509 51.6196 58.8188 51.3206 58.7238C50.535 58.4747 49.3499 58.3542 48.384 58.175C47.9548 58.0957 48.2318 58.0831 48.1957 58.0764C47.6091 57.9668 47.7235 58.0761 47.209 57.9898C46.5561 57.8823 44.7405 57.4527 44.4322 57.4003C43.6418 57.2713 44.9194 57.6972 44.8351 57.6934C44.3248 57.6816 43.3133 57.4093 43.3474 57.5276C45.7886 57.9658 52.8474 59.265 46.4187 58.3237C48.153 58.8151 47.587 58.9734 45.0659 58.5199C42.9738 58.1323 44.3377 58.2968 43.268 57.9754C43.1175 57.937 40.3744 57.3096 40.1965 57.3428C40.3458 57.1962 39.4681 56.8433 40.1184 56.8015C40.2145 56.7965 41.359 57.0542 40.9911 56.8259C40.8083 56.7121 40.2639 56.4303 40.3774 56.3597C40.1277 56.3712 39.866 56.3878 39.6131 56.4004C37.8982 56.0323 37.7076 55.9101 36.7884 55.5646C36.8192 55.6237 37.6347 56.0407 36.3363 55.6575C36.2705 55.637 36.2285 55.5497 35.5779 55.3473C34.2679 54.9363 34.007 54.8401 35.0722 54.8861C32.2938 54.2903 31.7946 53.8971 28.9653 53.1121C29.4348 53.5541 30.436 53.8059 33.0204 54.4589C33.1151 54.5555 33.1503 54.635 33.249 54.7332C29.8466 53.6277 31.5848 54.1293 29.5806 53.6825C29.0827 53.5757 26.6263 52.7464 27.3902 53.1953C27.5652 53.3033 29.1206 53.7861 28.9231 53.7979C28.874 53.8012 27.0037 53.2427 26.8253 53.1594C24.804 52.2192 28.5549 53.4082 22.8427 51.4239C22.6863 51.3667 22.6013 51.424 22.2949 51.3177C21.7201 51.1166 21.7528 51.0251 21.2425 50.8439C20.7166 50.6555 19.9561 50.4812 19.2587 50.0444C17.9719 49.2406 21.288 50.5666 22.6902 51.203C23.3471 51.3345 13.1136 46.6769 12.6621 46.0909C10.0643 44.5927 14.3659 47.2038 14.561 47.3345C14.6415 47.4138 14.3767 47.7684 15.6557 48.1242C16.0309 48.2285 14.6683 47.3928 15.5307 47.7946C16.4003 48.1937 16.0095 48.1307 16.0664 48.1706C16.2612 48.3058 17.1659 48.6987 17.2794 48.7706C19.003 49.8705 18.6243 50.1719 16.5021 48.475C15.4186 48.0891 17.6791 49.4483 16.3578 48.9007C14.7192 48.2153 13.7055 47.4032 13.5259 47.2915C11.2781 45.8318 13.7401 47.6835 11.0616 45.8809C9.57514 44.82 13.4182 47.2492 9.98641 44.9332C7.23571 42.8756 8.66254 44.0568 8.31747 44.0893C8.24046 44.0932 6.72047 42.9433 8.7565 44.5557C8.85108 44.5551 9.00918 44.5797 9.1755 44.6378C9.64463 45.0511 10.337 45.8907 10.6243 46.0922C11.9912 47.0502 11.9866 46.8481 12.744 47.5122C12.234 46.9828 13.1736 47.6786 13.5556 47.8426C14.9986 48.4539 13.1873 47.46 16.2494 49.2493C15.8888 48.9688 15.5506 48.6962 15.1942 48.4069C15.5741 48.602 15.9619 48.7953 16.3296 48.9738C16.7838 49.4325 18.8614 50.3692 16.9156 49.6809C19.1476 50.8003 20.0417 51.0903 20.6164 51.1642C20.721 51.1748 21.0819 51.3099 21.4706 51.4614C21.4123 51.3907 21.368 51.2259 21.4361 51.2351C22.0412 51.3201 22.8294 51.8929 22.4953 51.869C22.7753 51.9812 22.9988 52.0709 23.0775 52.103C23.5774 52.3064 22.5568 52.0172 22.9551 52.199C23.0859 52.2622 24.5231 52.7657 24.5302 52.8031C24.6413 53.0722 22.306 52.1222 27.0194 53.8585C27.1939 53.7023 24.9686 52.9995 25.6085 52.9818C26.2848 52.9654 27.4407 53.6794 27.7868 53.4823C27.8714 53.5597 27.9033 53.6118 27.9726 53.691C29.9184 54.169 29.9009 54.4038 30.4713 54.6303C31.5519 55.078 36.9141 56.483 32.1806 54.992C32.8767 55.164 33.6194 55.3538 34.2977 55.5116C34.3531 55.9688 33.9394 55.7139 37.3111 56.6019C38.0394 56.7898 38.2373 57.0323 39.0157 56.9764C38.8593 57.173 41.1215 57.5343 41.3046 57.5967C42.5958 58.0589 37.6116 57.225 37.1076 56.6775C36.238 56.6257 36.2881 56.4296 35.3639 56.2258C34.033 55.9266 33.8563 55.9239 32.3142 55.3468C30.7197 55.1526 38.3174 57.0191 33.6697 56.0995C29.1316 55.9137 1.4642 45.6945 0.753045 36.0318C0.239869 34.5315 0.00780392 33.0346 -1.07288e-05 31.5962C0.229221 21.587 5.83268 16.1216 13.7694 11.4576C14.6423 10.782 21.9632 7.59369 20.5344 8.50013C20.3303 8.60309 17.2198 10.0316 19.9915 9.06474C19.4044 9.18268 20.9502 8.47213 21.0888 8.41127C24.0917 7.01472 22.2732 7.5168 27.2322 5.96118ZM42.5564 4.77119C35.999 5.85089 40.8407 5.17391 39.5453 5.77547C40.4022 5.61853 41.2098 5.47834 42.0525 5.3391C41.8282 5.353 41.6076 5.36687 41.3848 5.38152C41.3839 5.38168 41.383 5.38184 41.382 5.382C41.7685 5.17748 42.1619 4.97351 42.5564 4.77119ZM151.151 4.55541C150.894 4.54182 150.646 4.53224 150.368 4.51684C149.54 4.31017 148.667 4.118 147.837 3.95174C147.944 3.93785 148.048 3.92315 148.155 3.90967C149.128 4.09263 150.192 4.32076 151.151 4.55541ZM23.5826 51.4832C24.7342 52.049 24.6651 51.7735 26.2011 52.4171C26.0654 52.1838 25.9091 51.9468 25.7666 51.7115C24.588 51.3271 24.2936 51.2943 23.0302 50.7702C23.1576 50.8799 23.2893 50.9911 23.4151 51.0997C23.633 51.1684 23.8666 51.2402 24.0797 51.3068C24.3538 51.5811 22.287 50.833 23.5784 51.482C23.5798 51.4824 23.5812 51.4828 23.5826 51.4832ZM35.7876 55.1376C36.4385 55.3316 38.9924 56.0241 39.3647 56.0274C40.6072 56.0729 33.3101 54.5021 38.7131 55.5579C38.6965 55.5182 38.7286 55.4905 38.7364 55.4568C37.7736 55.222 36.7906 54.9747 35.811 54.7181C35.83 54.865 35.7617 54.9882 35.7876 55.1376ZM19.4766 11.0783C18.508 11.4099 14.2625 13.7672 15.7423 13.1705C16.1473 12.9905 18.0107 11.8056 18.7481 11.4965C19.2368 11.2844 18.7367 11.6391 19.6879 11.1725C19.6231 11.1411 19.5723 11.0972 19.474 11.0797C19.4749 11.0793 19.4757 11.0788 19.4766 11.0783ZM20.9744 9.67244C20.0109 10.0809 18.9948 10.5465 18.0469 11.0118C18.7953 10.8134 20.2158 10.1114 20.3577 10.2714C20.1014 10.3938 19.8327 10.5235 19.5671 10.6544C19.3418 10.7043 19.121 10.7536 18.9015 10.8037C18.1052 11.2842 18.6526 11.0762 17.0823 11.7974C18.1726 11.6136 18.3432 11.6555 20.9297 10.256C20.4924 10.6139 21.1368 10.9037 22.5263 9.96978C22.7871 9.7946 21.5765 10.2067 21.5628 10.2032C21.3297 10.1448 21.9543 9.80526 21.7112 9.75898C21.5998 9.73717 20.8808 10.0234 20.7449 9.99071C20.6791 9.97307 21.3196 9.59284 20.9744 9.67244ZM23.2089 9.57525C22.9355 9.76528 24.0334 9.57319 24.9542 9.22128C26.3861 8.67743 24.0229 9.2581 23.2089 9.57525ZM151.156 4.55664C151.155 4.55623 151.153 4.55582 151.151 4.55541C151.152 4.55546 151.153 4.55552 151.154 4.55558C151.155 4.55593 151.156 4.55629 151.156 4.55664ZM32.4761 54.1621C33.2562 54.3059 34.3945 54.6167 34.3333 54.4823C34.6932 54.6001 35.0597 54.7176 35.4246 54.8334C35.4295 54.7993 35.431 54.7642 35.4359 54.7305C34.3377 54.4292 33.2203 54.1089 32.119 53.7764C32.2327 53.9036 32.3366 54.0282 32.4761 54.1621ZM44.7163 57.0923C46.1276 57.3747 44.9716 56.9954 45.2958 56.9812C45.6179 56.9676 46.8744 57.2618 46.7453 57.1283C45.901 56.9697 45.0574 56.8055 44.1908 56.631C44.3937 56.79 44.5288 56.9377 44.7192 57.0929C44.7182 57.0927 44.7173 57.0925 44.7163 57.0923ZM69.609 2.43823C68.6233 2.43933 69.0127 2.30309 67.0931 2.52005C67.0945 2.51999 67.0959 2.51993 67.0973 2.51987C68.9205 2.53836 71.3455 2.54735 73.3618 2.41292C72.1096 2.31485 71.1774 2.4392 69.609 2.43823ZM20.5198 49.8981C20.0949 49.8249 21.8708 50.6442 22.2831 50.7046C22.9661 50.8215 21.169 50.0239 20.5198 49.8981ZM109.51 1.17762C111 0.8756 108.167 0.575483 105.179 0.75026C104.923 0.765316 106.837 0.835748 106.27 0.898423C106.21 0.904579 105.165 0.90944 104.904 0.952646C104.644 0.995892 104.919 1.08613 104.492 1.13027C103.748 1.20734 102.014 1.10116 101.471 1.19767C101.397 1.2106 102.446 1.32293 102.517 1.32683C103.611 1.38929 104.649 1.21393 104.816 1.21094C105.672 1.19551 105.543 1.32509 105.76 1.35273C106.161 1.4048 106.897 1.34021 106.947 1.34389C108.262 1.44203 105.261 1.44229 104.87 1.49342C103.785 1.63065 104.803 1.73428 102.178 1.83593C101.936 1.84547 98.9828 1.87347 102.708 1.97205C95.4 2.35918 106.387 2.09632 107.59 2.02083C108.142 1.98459 107.304 1.87127 107.639 1.81285C108.405 1.6791 109.695 1.64479 109.578 1.46887C109.327 1.09874 107.629 1.35921 106.436 1.30989C106.56 1.22769 106.607 1.14832 106.837 1.06674C106.488 1.17651 109.409 1.19966 109.51 1.17835C109.51 1.1781 109.51 1.17786 109.51 1.17762ZM90.9698 1.80856C89.3181 1.71071 89.4279 1.94477 87.9299 1.82136C86.6081 2.04158 89.213 2.00922 89.5252 2.018C90.9302 2.05944 90.9004 2.28912 92.324 2.20491C91.834 2.07391 91.4333 1.94049 90.9698 1.80856ZM105.284 1.74412C104.192 1.87559 106.149 1.85123 106.226 1.87327C107.1 2.10425 101.22 2.12535 105.284 1.74412ZM13.6173 13.5405C13.1366 13.8223 13.4958 13.7363 13.0939 14.0246C12.6823 14.3086 11.2656 15.1548 11.3347 15.2022C11.4259 15.2078 14.021 13.691 11.5312 15.4248C11.6395 15.3972 11.6279 15.4418 11.6898 15.4423C12.3793 14.9605 13.0687 14.5153 13.8056 14.071C13.3441 14.2156 12.8767 14.3671 12.4456 14.5168C12.7909 14.182 13.0847 14.1386 13.1054 14.1252C13.1053 14.1251 13.1053 14.125 13.1052 14.1249C13.8692 13.6353 14.6814 12.9355 13.6173 13.5405ZM55.8482 3.0353C55.9829 2.73659 54.7306 3.16845 54.1782 3.25833C53.6382 3.34533 52.8891 3.31563 53.1791 3.40955C54.064 3.4028 55.8357 3.0671 55.8482 3.03494C55.8482 3.03506 55.8482 3.03518 55.8482 3.0353ZM82.0248 1.86085C80.9977 1.91404 80.853 1.96805 80.1506 1.95802C79.9065 1.95451 79.5953 1.94342 79.1584 1.92289C79.2243 1.99164 79.2903 2.06192 79.3562 2.12965C79.6953 2.12923 79.9439 2.11671 80.1506 2.09924C80.7648 2.04709 81.0068 1.9503 82.1707 2.00832C82.425 2.021 81.8815 2.18237 83.0284 2.12795C82.6947 2.0436 82.356 1.94973 82.0248 1.86085ZM75.1829 2.15507C76.7616 2.12291 78.0035 1.55067 75.1004 1.8395C74.6649 1.88389 73.9843 2.18226 75.1829 2.15507ZM26.9539 7.82452C24.3869 8.61557 27.3176 7.77741 28.0286 7.66865C22.0672 9.59417 28.7073 7.4007 29.3647 7.55867C30.0733 7.27567 31.4336 6.72519 29.8657 7.09251C29.2173 7.24838 29.4755 7.26638 29.4365 7.2765C28.2518 7.58794 28.3897 7.39971 26.9539 7.82452ZM93.822 1.76692C93.7195 1.77219 93.8806 1.86683 93.5552 1.88946C93.2351 1.91192 92.506 1.8518 92.434 1.91158C92.3645 1.97183 93.8196 2.00329 94.2812 1.95489C94.7339 1.90627 94.7484 1.72006 93.822 1.76692ZM83.4833 1.60541C82.1411 1.67893 84.3378 2.02686 84.6264 2.02343C87.2122 1.99262 83.3997 1.71918 83.4833 1.60541ZM32.8397 5.60437C29.722 6.56342 32.0987 6.27425 34.132 6.00185C34.3811 5.90588 34.6385 5.80892 34.8875 5.71518C33.768 6.20948 31.7347 6.88272 36.3106 5.67368C33.7509 6.1668 35.8679 5.64693 35.8835 5.6311C36.0655 5.1441 32.3645 6.18732 32.8426 5.60368C32.8416 5.60391 32.8407 5.60414 32.8397 5.60437ZM98.2027 1.81916C99.6401 1.8008 103.276 1.68327 101.576 1.51833C100.46 1.61854 99.3383 1.71897 98.2027 1.81916ZM4.30828 40.3934C4.93727 41.3609 5.6949 42.1879 6.76031 43.1587C5.91255 42.15 6.54726 42.7292 6.89658 42.999C7.42602 43.4095 6.23751 42.316 6.25475 42.3022C6.38497 42.2073 7.09058 42.9433 5.49639 41.2715C5.92917 41.6727 6.34443 42.0217 6.79029 42.3771C5.57006 41.1784 5.35193 40.7426 4.77832 39.8356C5.22541 40.8436 4.43644 39.6522 3.64769 38.6564C3.24264 38.156 3.93569 39.8761 4.31108 40.397C4.31016 40.3959 4.30921 40.3946 4.30828 40.3934ZM29.5588 6.38359C29.2465 6.52219 28.9694 6.67158 28.6755 6.81603C28.3388 6.91738 28.0064 7.01878 27.6733 7.12317C27.6177 7.09221 27.5685 7.05717 27.5062 7.03007C27.0482 7.1531 27.2438 7.16099 27.1111 7.20715C27.111 7.20692 27.1109 7.20668 27.1108 7.20645C25.2287 7.87088 24.4629 8.12355 22.9504 8.51544C22.9979 8.64644 23.0454 8.77745 23.0929 8.90845C23.4127 8.77838 23.7396 8.64872 24.0666 8.52162C24.2182 8.38981 24.372 8.25792 24.5264 8.12654C24.9346 8.03193 25.3147 7.94973 25.7092 7.86595C26.0058 7.74196 26.3677 7.59825 26.6291 7.49004C28.2825 7.38465 24.7233 8.21741 24.7436 8.40011C24.7485 8.48859 28.271 7.37787 28.7443 7.19052C28.8156 7.16011 27.9709 7.09547 29.3064 6.87762C29.5161 6.84617 29.7549 7.42245 31.0301 6.56454C31.2117 6.44372 30.4191 6.24265 29.5588 6.38359ZM16.8503 10.802C18.8838 10.188 11.848 13.4175 14.9503 12.1236C14.2017 12.7478 14.3559 12.6556 15.2779 12.3393C15.3584 12.3116 14.8003 12.6738 14.8538 12.6527C15.6954 12.2872 16.5872 11.7868 16.6766 11.9261C16.8859 11.8114 17.0851 11.7046 17.2988 11.5914C16.3241 11.8959 17.7293 11.0889 18.2175 10.7292C18.4456 10.5598 17.8576 10.8092 18.0482 10.6648C18.1167 10.6104 18.953 10.2768 18.9676 10.2131C18.9907 10.0704 18.3935 10.1447 17.4943 10.466C17.4943 10.4659 17.4942 10.4658 17.4941 10.4657C17.2872 10.5716 17.0654 10.6882 16.8503 10.802ZM60.1276 1.79566C60.4961 1.99369 61.8986 1.95766 59.2152 2.25547C59.3509 2.28935 59.4907 2.3227 59.6266 2.35679C60.0791 2.32061 60.5196 2.28652 60.9839 2.25245C62.354 1.50411 64.9154 2.10636 63.274 1.73215C63.0957 1.69142 62.0239 1.81066 63.0769 1.61224C63.0754 1.6122 63.074 1.61216 63.0725 1.61212C61.5805 1.74155 61.3827 1.83396 60.1276 1.79566ZM50.1624 2.86516C46.7794 3.72188 54.9229 2.60009 53.5516 2.63841C53.4139 2.63318 49.9373 3.11198 50.1624 2.86516ZM77.8088 0.901344C76.2614 0.905212 76.1684 1.16122 76.323 1.24949C76.4781 1.33824 77.5442 1.23638 77.6834 1.25014C78.1341 1.29415 77.1793 1.33229 77.7643 1.39276C77.9006 1.40618 79.294 1.44777 80.1506 1.47233C80.5023 1.48213 80.7595 1.48735 80.7958 1.48416C81.4853 1.42336 80.4771 1.21632 80.6743 1.19237C81.3179 1.11411 82.1874 1.22055 82.3723 1.10956C82.7718 0.873018 81.1522 1.12374 80.876 1.1276C80.4968 1.13299 80.3056 1.10801 80.1506 1.07686C79.9657 1.03991 79.8317 0.994198 79.493 0.98037C78.8696 0.955126 78.4643 1.00248 77.9186 0.996554C77.7372 0.994629 77.8874 0.90165 77.8088 0.901344ZM72.6975 1.50896C74.3008 1.28078 70.3887 1.16552 69.9022 1.23246C68.5247 1.40917 71.9446 1.6118 72.6975 1.50896ZM21.8773 9.2942C23.2192 8.63321 19.9537 9.75735 19.0652 10.2345C19.2698 10.1971 21.4016 9.51564 21.8773 9.2942ZM33.7288 5.39642C32.4045 5.75067 34.235 5.63569 35.3338 5.39571C35.9433 5.05559 35.3343 5.22553 34.6128 5.37758C33.8946 5.53047 34.7436 5.1305 33.7288 5.39642ZM94.6149 1.03097C94.3026 1.03223 89.6111 1.24653 92.3151 1.29088C92.5116 1.29485 95.8354 1.22972 96.0813 1.19494C96.5839 1.12553 95.3755 1.03192 94.6149 1.03097ZM40.0821 3.79679C39.3906 4.09965 38.6899 4.22916 39.3844 4.31172C39.3853 4.31154 39.3863 4.31137 39.3873 4.31119C37.595 4.70941 37.449 4.31467 37.0659 4.39869C35.7215 4.70535 37.0658 4.73886 36.2324 5.01248C38.1864 4.51736 37.6425 4.83658 39.1503 4.5635C39.4927 4.50085 40.8188 4.14127 40.9978 4.03505C41.1803 3.9265 40.4576 3.81971 40.0821 3.79679ZM101.287 0.909086C99.7013 0.860387 98.2362 1.16487 100.451 1.18377C101.527 1.19319 102.252 0.938757 101.287 0.909086ZM37.7896 56.6634C37.5704 56.5346 37.351 56.4055 37.1108 56.2712C37.6859 56.3906 38.2547 56.5047 38.8331 56.6179C38.3747 56.5375 37.9185 56.4553 37.4622 56.3709C38.5205 56.648 38.9842 56.8937 37.7924 56.6641C37.7915 56.6638 37.7906 56.6636 37.7896 56.6634ZM76.7747 62.0651C77.2654 62.1677 78.2575 61.999 78.1325 61.9743C77.2079 61.7924 76.0936 61.9228 76.7747 62.0651ZM19.5922 9.47838C17.847 10.1985 19.195 10.0006 20.2376 9.59768C19.5793 9.79509 20.559 9.09423 19.5922 9.47838ZM62.9706 60.886C62.8096 60.8369 62.6475 60.7875 62.4673 60.7359C63.0404 60.8433 63.1384 60.8829 62.9706 60.886ZM93.855 0.716956C93.5679 0.692241 91.5134 0.689445 91.2291 0.726379C90.6481 0.804497 92.2694 0.991121 93.2111 0.919369C93.3121 0.911729 94.1361 0.742015 93.8506 0.717002C93.8521 0.716986 93.8535 0.716971 93.855 0.716956ZM40.1901 57.3515C40.1877 57.3474 40.1901 57.3445 40.1965 57.3428C40.1938 57.3455 40.1936 57.349 40.1901 57.3515ZM118.157 61.1862C118.145 61.1827 118.138 61.1783 118.138 61.1728C118.144 61.1772 118.153 61.181 118.157 61.1862ZM79.2203 0.490457C78.52 0.143987 76.9259 0.340605 78.1882 0.503976C78.2585 0.512375 79.0507 0.489971 79.2203 0.490457Z" fill="white"/>
</svg>
