<svg width="20" height="20" viewBox="0 0 20 20" fill="none" xmlns="http://www.w3.org/2000/svg">
<path d="M3.33341 16.6667C2.87508 16.6667 2.48286 16.5036 2.15675 16.1775C1.83064 15.8514 1.6673 15.4589 1.66675 15V4.99999C1.66675 4.54166 1.83008 4.14944 2.15675 3.82333C2.48341 3.49722 2.87564 3.33388 3.33341 3.33333H16.6667C17.1251 3.33333 17.5176 3.49666 17.8442 3.82333C18.1709 4.14999 18.334 4.54222 18.3334 4.99999V15C18.3334 15.4583 18.1704 15.8508 17.8442 16.1775C17.5181 16.5042 17.1256 16.6672 16.6667 16.6667H3.33341ZM10.0001 10.8333L16.6667 6.66666V4.99999L10.0001 9.16666L3.33341 4.99999V6.66666L10.0001 10.8333Z" fill="white"/>
</svg>
