<svg width="24" height="24" viewBox="0 0 24 24" fill="none" xmlns="http://www.w3.org/2000/svg">
<mask id="mask0_516_2999" style="mask-type:luminance" maskUnits="userSpaceOnUse" x="4" y="2" width="15" height="20">
<path fill-rule="evenodd" clip-rule="evenodd" d="M11.5 2C7.358 2 4 5.436 4 9.674C4 11.947 4.966 13.989 6.499 15.394C7.009 15.861 7.388 16.208 7.656 16.46C7.79174 16.5875 7.9251 16.7175 8.056 16.85L8.089 16.886C8.326 17.186 8.377 17.262 8.407 17.332C8.437 17.402 8.46 17.492 8.519 17.872C8.543 18.022 8.545 18.278 8.545 18.977V19.007C8.545 19.416 8.545 19.769 8.571 20.058C8.598 20.364 8.658 20.668 8.819 20.953C8.999 21.272 9.257 21.536 9.569 21.72C9.847 21.885 10.144 21.946 10.443 21.974C10.726 22 11.071 22 11.471 22H11.529C11.929 22 12.274 22 12.557 21.974C12.857 21.946 13.152 21.884 13.432 21.72C13.7447 21.5345 14.003 21.27 14.181 20.953C14.341 20.668 14.401 20.365 14.429 20.058C14.455 19.768 14.455 19.416 14.454 19.007V18.977C14.454 18.278 14.457 18.022 14.48 17.872C14.54 17.492 14.562 17.402 14.593 17.332C14.623 17.262 14.674 17.185 14.911 16.886L14.914 16.883L14.919 16.877L14.944 16.85L15.032 16.76C15.1067 16.6847 15.2107 16.5847 15.344 16.46C15.612 16.208 15.991 15.861 16.501 15.393C17.2917 14.6654 17.9222 13.7812 18.3525 12.7965C18.7827 11.8119 19.0032 10.7485 19 9.674C19 5.436 15.642 2 11.5 2ZM13.07 19.932C13.0773 19.8567 13.0823 19.7707 13.085 19.674H9.915C9.91767 19.7707 9.92233 19.8567 9.929 19.932C9.948 20.142 9.979 20.218 10 20.256C10.0599 20.3612 10.146 20.449 10.25 20.511C10.287 20.533 10.361 20.565 10.566 20.584C10.78 20.604 11.063 20.604 11.5 20.604C11.937 20.604 12.22 20.604 12.434 20.584C12.639 20.565 12.713 20.534 12.75 20.511C12.854 20.449 12.9401 20.3612 13 20.256C13.021 20.218 13.052 20.142 13.07 19.932Z" fill="white"/>
<path fill-rule="evenodd" clip-rule="evenodd" d="M9.27423 13.3498C9.35952 13.3005 9.45369 13.2684 9.55137 13.2555C9.64905 13.2426 9.74832 13.249 9.84351 13.2745C9.93869 13.2999 10.0279 13.3439 10.1061 13.4038C10.1843 13.4638 10.2499 13.5385 10.2992 13.6238C10.4089 13.8141 10.5667 13.9721 10.7568 14.082C10.9469 14.1918 11.1627 14.2497 11.3822 14.2497C11.6018 14.2497 11.8175 14.1918 12.0076 14.082C12.1978 13.9721 12.3556 13.8141 12.4652 13.6238C12.5146 13.5386 12.5803 13.4639 12.6585 13.4041C12.7368 13.3443 12.826 13.3004 12.9212 13.2751C13.0164 13.2497 13.1156 13.2434 13.2133 13.2564C13.3109 13.2694 13.405 13.3015 13.4902 13.3508C13.5755 13.4002 13.6501 13.4659 13.71 13.5441C13.7698 13.6224 13.8137 13.7116 13.839 13.8068C13.8644 13.902 13.8707 14.0012 13.8577 14.0989C13.8447 14.1965 13.8126 14.2906 13.7632 14.3758C13.4046 14.9945 12.8199 15.4498 12.1322 15.6458V16.9998C12.1322 17.1988 12.0532 17.3895 11.9126 17.5302C11.7719 17.6708 11.5811 17.7498 11.3822 17.7498C11.1833 17.7498 10.9926 17.6708 10.8519 17.5302C10.7113 17.3895 10.6322 17.1988 10.6322 16.9998V15.6458C9.94421 15.45 9.35909 14.9947 9.00023 14.3758C8.95089 14.2906 8.91884 14.1964 8.9059 14.0987C8.89297 14.001 8.89941 13.9018 8.92486 13.8066C8.9503 13.7114 8.99425 13.6221 9.0542 13.5439C9.11415 13.4657 9.18892 13.3991 9.27423 13.3498Z" fill="black"/>
</mask>
<g mask="url(#mask0_516_2999)">
<path d="M0 0H24V24H0V0Z" fill="black"/>
</g>
</svg>
